<svg width="644" height="72" viewBox="0 0 644 72" fill="none" xmlns="http://www.w3.org/2000/svg">
<path d="M0.178131 0.999996H25.1381V57H18.0981V2.68H7.29813V57H0.178131V0.999996ZM42.2863 18.36C41.5929 18.36 40.9529 18.52 40.3663 18.84C39.7796 19.16 39.2463 19.7733 38.7663 20.68C38.3396 21.5333 37.9929 22.7067 37.7263 24.2C37.5129 25.6933 37.4063 27.64 37.4063 30.04V32.6H49.0063C49.1663 32.3333 49.3529 32.04 49.5663 31.72C49.8329 31.4 49.9396 30.8133 49.8863 29.96C49.8329 27.56 49.5129 25.6133 48.9263 24.12C48.3929 22.6267 47.7529 21.4533 47.0063 20.6C46.2596 19.7467 45.4596 19.16 44.6063 18.84C43.7529 18.52 42.9796 18.36 42.2863 18.36ZM43.9663 56.12C44.7663 56.12 45.5663 55.96 46.3663 55.64C47.2196 55.32 48.0463 54.7867 48.8463 54.04C49.6463 53.24 50.3929 52.2267 51.0863 51C51.8329 49.7733 52.4463 48.2533 52.9263 46.44L54.0463 47.48C53.0863 51.2133 51.6463 53.88 49.7263 55.48C47.8596 57.0267 45.9396 57.8 43.9663 57.8C42.2596 57.8 40.5529 57.4 38.8463 56.6C37.1396 55.8 35.6196 54.5733 34.2863 52.92C32.9529 51.2133 31.8596 49.0533 31.0063 46.44C30.2063 43.8267 29.8063 40.7333 29.8063 37.16C29.8063 34.28 30.1263 31.5867 30.7663 29.08C31.4596 26.5733 32.3663 24.3867 33.4863 22.52C34.6063 20.6533 35.9129 19.1867 37.4063 18.12C38.9529 17 40.5796 16.44 42.2863 16.44C43.9929 16.44 45.5396 16.8933 46.9263 17.8C48.3663 18.7067 49.5929 19.96 50.6063 21.56C51.6196 23.16 52.4196 25.0533 53.0063 27.24C53.6463 29.3733 53.9929 31.72 54.0463 34.28H37.4063C37.3529 35.9333 37.3263 37.5067 37.3263 39C37.3263 40.4933 37.3529 42.2533 37.4063 44.28C37.4063 46.68 37.6196 48.6533 38.0463 50.2C38.5263 51.6933 39.0863 52.8933 39.7263 53.8C40.3663 54.6533 41.0596 55.2667 41.8063 55.64C42.5529 55.96 43.2729 56.12 43.9663 56.12ZM75.6725 44.28C75.7792 42.8933 75.8325 41.64 75.8325 40.52C75.8858 39.3467 75.9125 38.2267 75.9125 37.16C75.9125 36.04 75.8858 34.92 75.8325 33.8C75.8325 32.6267 75.7792 31.3467 75.6725 29.96C75.6725 27.6133 75.4058 25.6933 74.8725 24.2C74.3392 22.7067 73.6192 21.5067 72.7125 20.6C71.8592 19.6933 70.8992 19.08 69.8325 18.76C68.7658 18.3867 67.6725 18.2 66.5525 18.2V55.8C67.6725 55.8 68.7392 55.64 69.7525 55.32C70.8192 54.9467 71.7525 54.36 72.5525 53.56C73.4058 52.7067 74.0992 51.5333 74.6325 50.04C75.2192 48.5467 75.5658 46.6267 75.6725 44.28ZM82.4725 37.16C82.4725 39.9867 82.1258 42.6267 81.4325 45.08C80.7925 47.5333 79.8058 49.6667 78.4725 51.48C77.1925 53.2933 75.5392 54.7333 73.5125 55.8C71.5392 56.8667 69.2192 57.4 66.5525 57.4V71.8H59.5125V16.52H66.5525C69.2192 16.52 71.5392 17.08 73.5125 18.2C75.5392 19.2667 77.1925 20.7333 78.4725 22.6C79.8058 24.4667 80.7925 26.6533 81.4325 29.16C82.1258 31.6133 82.4725 34.28 82.4725 37.16ZM99.1206 18.36C98.4273 18.36 97.7873 18.52 97.2006 18.84C96.614 19.16 96.0806 19.7733 95.6006 20.68C95.174 21.5333 94.8273 22.7067 94.5606 24.2C94.3473 25.6933 94.2406 27.64 94.2406 30.04V32.6H105.841C106.001 32.3333 106.187 32.04 106.401 31.72C106.667 31.4 106.774 30.8133 106.721 29.96C106.667 27.56 106.347 25.6133 105.761 24.12C105.227 22.6267 104.587 21.4533 103.841 20.6C103.094 19.7467 102.294 19.16 101.441 18.84C100.587 18.52 99.814 18.36 99.1206 18.36ZM100.801 56.12C101.601 56.12 102.401 55.96 103.201 55.64C104.054 55.32 104.881 54.7867 105.681 54.04C106.481 53.24 107.227 52.2267 107.921 51C108.667 49.7733 109.281 48.2533 109.761 46.44L110.881 47.48C109.921 51.2133 108.481 53.88 106.561 55.48C104.694 57.0267 102.774 57.8 100.801 57.8C99.094 57.8 97.3873 57.4 95.6806 56.6C93.974 55.8 92.454 54.5733 91.1206 52.92C89.7873 51.2133 88.694 49.0533 87.8406 46.44C87.0406 43.8267 86.6406 40.7333 86.6406 37.16C86.6406 34.28 86.9606 31.5867 87.6006 29.08C88.294 26.5733 89.2006 24.3867 90.3206 22.52C91.4406 20.6533 92.7473 19.1867 94.2406 18.12C95.7873 17 97.414 16.44 99.1206 16.44C100.827 16.44 102.374 16.8933 103.761 17.8C105.201 18.7067 106.427 19.96 107.441 21.56C108.454 23.16 109.254 25.0533 109.841 27.24C110.481 29.3733 110.827 31.72 110.881 34.28H94.2406C94.1873 35.9333 94.1606 37.5067 94.1606 39C94.1606 40.4933 94.1873 42.2533 94.2406 44.28C94.2406 46.68 94.454 48.6533 94.8806 50.2C95.3606 51.6933 95.9206 52.8933 96.5606 53.8C97.2006 54.6533 97.894 55.2667 98.6406 55.64C99.3873 55.96 100.107 56.12 100.801 56.12ZM128.216 41.4V18.68H128.056C127.362 18.68 126.616 18.76 125.816 18.92C125.069 19.0267 124.376 19.32 123.736 19.8C123.096 20.2267 122.562 20.8933 122.136 21.8C121.709 22.6533 121.496 23.8533 121.496 25.4C121.389 27.2133 121.336 28.76 121.336 30.04C121.336 31.32 121.389 32.8667 121.496 34.68C121.602 36.2267 121.869 37.4533 122.296 38.36C122.722 39.2133 123.229 39.88 123.816 40.36C124.456 40.7867 125.149 41.08 125.896 41.24C126.642 41.3467 127.362 41.4 128.056 41.4H128.216ZM135.336 17V57H128.216V43.08H128.056C127.789 43.08 127.496 43.08 127.176 43.08C126.909 43.08 126.642 43.0533 126.376 43L119.736 56.92H111.816L124.696 42.76C121.442 42.12 118.962 40.6533 117.256 38.36C115.549 36.0667 114.696 33.2933 114.696 30.04C114.696 28.1733 114.989 26.44 115.576 24.84C116.162 23.24 117.016 21.88 118.136 20.76C119.256 19.5867 120.642 18.68 122.296 18.04C124.002 17.3467 125.922 17 128.056 17H135.336ZM161.273 55.8C162.499 55.8 163.779 55.6667 165.113 55.4C166.499 55.08 167.859 54.5733 169.193 53.88C170.526 53.1867 171.779 52.2533 172.953 51.08C174.126 49.9067 175.113 48.4133 175.913 46.6L177.433 47.16C176.686 48.9733 175.699 50.5467 174.473 51.88C173.299 53.16 171.993 54.2267 170.553 55.08C169.113 55.88 167.593 56.4667 165.993 56.84C164.446 57.2133 162.899 57.4 161.353 57.4C158.686 57.4 156.153 56.8667 153.753 55.8C151.406 54.7333 149.353 53.2933 147.593 51.48C145.833 49.6133 144.446 47.4533 143.433 45C142.419 42.4933 141.913 39.8267 141.913 37C141.913 34.1733 142.419 31.5067 143.433 29C144.446 26.4933 145.833 24.3333 147.593 22.52C149.353 20.6533 151.406 19.1867 153.753 18.12C156.153 17.0533 158.686 16.52 161.353 16.52C164.019 16.52 166.339 16.8133 168.313 17.4C170.286 17.9867 171.993 18.7333 173.433 19.64C174.873 20.5467 176.099 21.5333 177.113 22.6C178.126 23.6667 179.006 24.6533 179.753 25.56L173.513 34.52L172.793 34.12C173.059 33.5867 173.273 32.9733 173.433 32.28C173.646 31.5333 173.753 30.7333 173.753 29.88C173.753 27.5333 173.299 25.6133 172.393 24.12C171.539 22.6267 170.473 21.4533 169.193 20.6C167.913 19.7467 166.553 19.16 165.113 18.84C163.673 18.52 162.393 18.36 161.273 18.36C160.206 18.36 158.926 18.52 157.433 18.84C155.993 19.16 154.606 19.7467 153.273 20.6C151.993 21.4533 150.873 22.6267 149.913 24.12C149.006 25.6133 148.553 27.5333 148.553 29.88C148.499 31.2667 148.446 32.52 148.393 33.64C148.393 34.76 148.393 35.88 148.393 37C148.393 38.0667 148.393 39.16 148.393 40.28C148.446 41.4 148.499 42.6533 148.553 44.04C148.713 46.3867 149.246 48.3333 150.153 49.88C151.113 51.3733 152.233 52.5733 153.513 53.48C154.793 54.3333 156.126 54.9467 157.513 55.32C158.953 55.64 160.206 55.8 161.273 55.8ZM207.044 17.08V57H199.924V18.76H196.164L194.804 43.8C194.644 46.52 194.297 48.76 193.764 50.52C193.23 52.2267 192.59 53.5867 191.844 54.6C191.097 55.56 190.27 56.2533 189.364 56.68C188.457 57.0533 187.55 57.24 186.644 57.24C185.95 57.24 185.284 57.16 184.644 57L182.244 46.44L182.804 46.2C183.55 47.1067 184.324 47.8267 185.124 48.36C185.924 48.84 186.857 49.08 187.924 49.08C188.937 49.08 189.977 48.5733 191.044 47.56C192.11 46.5467 192.75 44.8667 192.964 42.52C193.284 38.68 193.55 34.9467 193.764 31.32C194.03 27.6933 194.244 24.3067 194.404 21.16L191.444 17.56V17.08H207.044ZM222.441 55.4C223.348 55.4 224.068 55.24 224.601 54.92C225.188 54.6 225.615 54.1733 225.881 53.64C226.148 53.1067 226.335 52.52 226.441 51.88C226.548 51.1867 226.628 50.4933 226.681 49.8V43.24V41.08V32.6C225.455 32.6 224.308 32.7333 223.241 33C222.175 33.2667 221.241 33.7467 220.441 34.44C219.695 35.1333 219.108 36.04 218.681 37.16C218.255 38.2267 218.041 39.6133 218.041 41.32C218.041 41.8 218.041 42.4133 218.041 43.16C218.041 43.8533 218.041 44.6 218.041 45.4C218.041 46.1467 218.041 46.8933 218.041 47.64C218.041 48.3867 218.041 49.0533 218.041 49.64C218.041 51.6667 218.521 53.1333 219.481 54.04C220.495 54.9467 221.481 55.4 222.441 55.4ZM233.961 57H226.681V55C226.201 55.5867 225.668 56.12 225.081 56.6C224.548 57.0267 223.535 57.24 222.041 57.24C220.655 57.24 219.321 56.9733 218.041 56.44C216.761 55.8533 215.641 55.0533 214.681 54.04C213.721 52.9733 212.948 51.6933 212.361 50.2C211.775 48.7067 211.481 47.0533 211.481 45.24C211.481 41.72 212.041 39 213.161 37.08C214.335 35.16 215.721 33.7467 217.321 32.84C218.921 31.9333 220.575 31.4 222.281 31.24C224.041 31.0267 225.535 30.92 226.761 30.92V23.8C226.761 23 226.735 22.2533 226.681 21.56C226.681 20.8667 226.575 20.28 226.361 19.8C226.201 19.32 225.908 18.9467 225.481 18.68C225.108 18.36 224.548 18.2 223.801 18.2C222.681 18.2 221.695 18.44 220.841 18.92C220.041 19.4 219.455 20.12 219.081 21.08C218.761 21.9867 218.708 23.1333 218.921 24.52C219.188 25.9067 219.801 27.5067 220.761 29.32H219.801L214.041 24.76C214.468 23.7467 214.815 22.76 215.081 21.8C215.401 20.7867 215.881 19.9067 216.521 19.16C217.161 18.36 218.041 17.72 219.161 17.24C220.335 16.76 221.935 16.52 223.961 16.52C227.108 16.52 229.535 17.2667 231.241 18.76C233.001 20.2533 233.908 22.4933 233.961 25.48V57ZM253.713 48.2C253.766 47.2933 253.793 46.4667 253.793 45.72C253.846 44.92 253.873 44.1733 253.873 43.48C253.873 42.7333 253.846 41.9867 253.793 41.24C253.793 40.4933 253.766 39.6667 253.713 38.76C253.713 37.16 253.473 35.9333 252.993 35.08C252.566 34.2267 252.006 33.64 251.313 33.32C250.673 32.9467 249.926 32.76 249.073 32.76C248.273 32.7067 247.499 32.68 246.753 32.68H246.593V55.24H246.753C247.499 55.24 248.246 55.1867 248.993 55.08C249.793 54.92 250.513 54.6 251.153 54.12C251.846 53.64 252.406 52.9467 252.833 52.04C253.313 51.08 253.606 49.8 253.713 48.2ZM251.553 22.28C251.606 20.8933 251.126 19.96 250.113 19.48C249.099 19 247.926 18.76 246.593 18.76V30.92C247.926 30.92 249.073 30.7067 250.033 30.28C250.993 29.8 251.499 28.7333 251.553 27.08V22.28ZM252.673 31.88C255.233 32.7867 257.179 34.2533 258.513 36.28C259.846 38.2533 260.513 40.68 260.513 43.56C260.513 45.2133 260.193 46.84 259.553 48.44C258.966 50.04 258.086 51.48 256.913 52.76C255.739 54.04 254.299 55.08 252.593 55.88C250.886 56.6267 248.913 57 246.673 57H239.313V17H246.593C248.673 17.0533 250.433 17.2933 251.873 17.72C253.366 18.1467 254.566 18.7333 255.473 19.48C256.433 20.1733 257.126 21 257.553 21.96C257.979 22.8667 258.193 23.8267 258.193 24.84C258.193 26.7067 257.766 28.2267 256.913 29.4C256.059 30.52 254.646 31.3467 252.673 31.88ZM283.379 55.8C284.605 55.8 285.885 55.6667 287.219 55.4C288.605 55.08 289.965 54.5733 291.299 53.88C292.632 53.1867 293.885 52.2533 295.059 51.08C296.232 49.9067 297.219 48.4133 298.019 46.6L299.539 47.16C298.792 48.9733 297.805 50.5467 296.579 51.88C295.405 53.16 294.099 54.2267 292.659 55.08C291.219 55.88 289.699 56.4667 288.099 56.84C286.552 57.2133 285.005 57.4 283.459 57.4C280.792 57.4 278.259 56.8667 275.859 55.8C273.512 54.7333 271.459 53.2933 269.699 51.48C267.939 49.6133 266.552 47.4533 265.539 45C264.525 42.4933 264.019 39.8267 264.019 37C264.019 34.1733 264.525 31.5067 265.539 29C266.552 26.4933 267.939 24.3333 269.699 22.52C271.459 20.6533 273.512 19.1867 275.859 18.12C278.259 17.0533 280.792 16.52 283.459 16.52C286.125 16.52 288.445 16.8133 290.419 17.4C292.392 17.9867 294.099 18.7333 295.539 19.64C296.979 20.5467 298.205 21.5333 299.219 22.6C300.232 23.6667 301.112 24.6533 301.859 25.56L295.619 34.52L294.899 34.12C295.165 33.5867 295.379 32.9733 295.539 32.28C295.752 31.5333 295.859 30.7333 295.859 29.88C295.859 27.5333 295.405 25.6133 294.499 24.12C293.645 22.6267 292.579 21.4533 291.299 20.6C290.019 19.7467 288.659 19.16 287.219 18.84C285.779 18.52 284.499 18.36 283.379 18.36C282.312 18.36 281.032 18.52 279.539 18.84C278.099 19.16 276.712 19.7467 275.379 20.6C274.099 21.4533 272.979 22.6267 272.019 24.12C271.112 25.6133 270.659 27.5333 270.659 29.88C270.605 31.2667 270.552 32.52 270.499 33.64C270.499 34.76 270.499 35.88 270.499 37C270.499 38.0667 270.499 39.16 270.499 40.28C270.552 41.4 270.605 42.6533 270.659 44.04C270.819 46.3867 271.352 48.3333 272.259 49.88C273.219 51.3733 274.339 52.5733 275.619 53.48C276.899 54.3333 278.232 54.9467 279.619 55.32C281.059 55.64 282.312 55.8 283.379 55.8ZM325.985 34.2L329.985 57H322.785L318.625 36.04H313.345V57H306.225V17H313.345V34.2H315.825C316.092 30.8933 316.412 28.1467 316.785 25.96C317.212 23.7733 317.798 22.0133 318.545 20.68C319.292 19.3467 320.252 18.4133 321.425 17.88C322.598 17.2933 324.065 17 325.825 17C326.572 17 327.265 17.1333 327.905 17.4C328.545 17.6133 329.158 17.9067 329.745 18.28L327.985 30.04H327.425C327.318 28.4933 327.078 27.24 326.705 26.28C326.332 25.2667 325.612 24.5467 324.545 24.12C323.745 23.7467 322.998 23.56 322.305 23.56C320.705 23.56 319.612 24.5467 319.025 26.52C318.492 28.44 317.985 31 317.505 34.2H325.985ZM343.922 55.4C344.829 55.4 345.549 55.24 346.082 54.92C346.669 54.6 347.096 54.1733 347.362 53.64C347.629 53.1067 347.816 52.52 347.922 51.88C348.029 51.1867 348.109 50.4933 348.162 49.8V43.24V41.08V32.6C346.936 32.6 345.789 32.7333 344.722 33C343.656 33.2667 342.722 33.7467 341.922 34.44C341.176 35.1333 340.589 36.04 340.162 37.16C339.736 38.2267 339.522 39.6133 339.522 41.32C339.522 41.8 339.522 42.4133 339.522 43.16C339.522 43.8533 339.522 44.6 339.522 45.4C339.522 46.1467 339.522 46.8933 339.522 47.64C339.522 48.3867 339.522 49.0533 339.522 49.64C339.522 51.6667 340.002 53.1333 340.962 54.04C341.976 54.9467 342.962 55.4 343.922 55.4ZM355.442 57H348.162V55C347.682 55.5867 347.149 56.12 346.562 56.6C346.029 57.0267 345.016 57.24 343.522 57.24C342.136 57.24 340.802 56.9733 339.522 56.44C338.242 55.8533 337.122 55.0533 336.162 54.04C335.202 52.9733 334.429 51.6933 333.842 50.2C333.256 48.7067 332.962 47.0533 332.962 45.24C332.962 41.72 333.522 39 334.642 37.08C335.816 35.16 337.202 33.7467 338.802 32.84C340.402 31.9333 342.056 31.4 343.762 31.24C345.522 31.0267 347.016 30.92 348.242 30.92V23.8C348.242 23 348.216 22.2533 348.162 21.56C348.162 20.8667 348.056 20.28 347.842 19.8C347.682 19.32 347.389 18.9467 346.962 18.68C346.589 18.36 346.029 18.2 345.282 18.2C344.162 18.2 343.176 18.44 342.322 18.92C341.522 19.4 340.936 20.12 340.562 21.08C340.242 21.9867 340.189 23.1333 340.402 24.52C340.669 25.9067 341.282 27.5067 342.242 29.32H341.282L335.522 24.76C335.949 23.7467 336.296 22.76 336.562 21.8C336.882 20.7867 337.362 19.9067 338.002 19.16C338.642 18.36 339.522 17.72 340.642 17.24C341.816 16.76 343.416 16.52 345.442 16.52C348.589 16.52 351.016 17.2667 352.722 18.76C354.482 20.2533 355.389 22.4933 355.442 25.48V57ZM376.1 41.4V18.68H375.94C375.247 18.68 374.5 18.76 373.7 18.92C372.953 19.0267 372.26 19.32 371.62 19.8C370.98 20.2267 370.447 20.8933 370.02 21.8C369.593 22.6533 369.38 23.8533 369.38 25.4C369.273 27.2133 369.22 28.76 369.22 30.04C369.22 31.32 369.273 32.8667 369.38 34.68C369.487 36.2267 369.753 37.4533 370.18 38.36C370.607 39.2133 371.113 39.88 371.7 40.36C372.34 40.7867 373.033 41.08 373.78 41.24C374.527 41.3467 375.247 41.4 375.94 41.4H376.1ZM383.22 17V57H376.1V43.08H375.94C375.673 43.08 375.38 43.08 375.06 43.08C374.793 43.08 374.527 43.0533 374.26 43L367.62 56.92H359.7L372.58 42.76C369.327 42.12 366.847 40.6533 365.14 38.36C363.433 36.0667 362.58 33.2933 362.58 30.04C362.58 28.1733 362.873 26.44 363.46 24.84C364.047 23.24 364.9 21.88 366.02 20.76C367.14 19.5867 368.527 18.68 370.18 18.04C371.887 17.3467 373.807 17 375.94 17H383.22ZM428.944 44.28C429.051 42.8933 429.104 41.64 429.104 40.52C429.158 39.3467 429.184 38.2267 429.184 37.16C429.184 36.04 429.158 34.92 429.104 33.8C429.104 32.6267 429.051 31.3467 428.944 29.96C428.944 27.6133 428.678 25.6933 428.144 24.2C427.611 22.7067 426.891 21.5067 425.984 20.6C425.131 19.6933 424.171 19.08 423.104 18.76C422.038 18.3867 420.944 18.2 419.824 18.2V55.8C420.944 55.8 422.011 55.64 423.024 55.32C424.091 54.9467 425.024 54.36 425.824 53.56C426.678 52.7067 427.371 51.5333 427.904 50.04C428.491 48.5467 428.838 46.6267 428.944 44.28ZM435.744 37.16C435.744 39.9867 435.398 42.6267 434.704 45.08C434.064 47.5333 433.078 49.6667 431.744 51.48C430.464 53.2933 428.811 54.7333 426.784 55.8C424.811 56.8667 422.491 57.4 419.824 57.4V71.8H412.784V16.52H419.824C422.491 16.52 424.811 17.08 426.784 18.2C428.811 19.2667 430.464 20.7333 431.744 22.6C433.078 24.4667 434.064 26.6533 434.704 29.16C435.398 31.6133 435.744 34.28 435.744 37.16ZM450.404 55.4C451.31 55.4 452.03 55.24 452.564 54.92C453.15 54.6 453.577 54.1733 453.844 53.64C454.11 53.1067 454.297 52.52 454.404 51.88C454.51 51.1867 454.59 50.4933 454.644 49.8V43.24V41.08V32.6C453.417 32.6 452.27 32.7333 451.204 33C450.137 33.2667 449.204 33.7467 448.404 34.44C447.657 35.1333 447.07 36.04 446.644 37.16C446.217 38.2267 446.004 39.6133 446.004 41.32C446.004 41.8 446.004 42.4133 446.004 43.16C446.004 43.8533 446.004 44.6 446.004 45.4C446.004 46.1467 446.004 46.8933 446.004 47.64C446.004 48.3867 446.004 49.0533 446.004 49.64C446.004 51.6667 446.484 53.1333 447.444 54.04C448.457 54.9467 449.444 55.4 450.404 55.4ZM461.924 57H454.644V55C454.164 55.5867 453.63 56.12 453.044 56.6C452.51 57.0267 451.497 57.24 450.004 57.24C448.617 57.24 447.284 56.9733 446.004 56.44C444.724 55.8533 443.604 55.0533 442.644 54.04C441.684 52.9733 440.91 51.6933 440.324 50.2C439.737 48.7067 439.444 47.0533 439.444 45.24C439.444 41.72 440.004 39 441.124 37.08C442.297 35.16 443.684 33.7467 445.284 32.84C446.884 31.9333 448.537 31.4 450.244 31.24C452.004 31.0267 453.497 30.92 454.724 30.92V23.8C454.724 23 454.697 22.2533 454.644 21.56C454.644 20.8667 454.537 20.28 454.324 19.8C454.164 19.32 453.87 18.9467 453.444 18.68C453.07 18.36 452.51 18.2 451.764 18.2C450.644 18.2 449.657 18.44 448.804 18.92C448.004 19.4 447.417 20.12 447.044 21.08C446.724 21.9867 446.67 23.1333 446.884 24.52C447.15 25.9067 447.764 27.5067 448.724 29.32H447.764L442.004 24.76C442.43 23.7467 442.777 22.76 443.044 21.8C443.364 20.7867 443.844 19.9067 444.484 19.16C445.124 18.36 446.004 17.72 447.124 17.24C448.297 16.76 449.897 16.52 451.924 16.52C455.07 16.52 457.497 17.2667 459.204 18.76C460.964 20.2533 461.87 22.4933 461.924 25.48V57ZM485.517 55.4V19.56H476.797L473.517 55.4H485.517ZM498.397 55.4L501.117 66.92H500.317C499.837 65.1067 499.197 63.5067 498.397 62.12C497.704 60.8933 496.797 59.7733 495.677 58.76C494.611 57.7467 493.251 57.24 491.597 57.24H473.437C471.731 57.24 470.317 57.7467 469.197 58.76C468.131 59.7733 467.251 60.8933 466.557 62.12C465.757 63.5067 465.144 65.1067 464.717 66.92H463.837L466.557 55.4H471.837C472.371 50.12 472.851 45.1867 473.277 40.6C473.437 38.68 473.597 36.7333 473.757 34.76C473.971 32.7867 474.157 30.9467 474.317 29.24C474.477 27.48 474.611 25.9067 474.717 24.52C474.824 23.1333 474.877 22.0667 474.877 21.32L471.837 17.48V17H492.317V55.4H498.397ZM510.285 55.4C511.192 55.4 511.912 55.24 512.445 54.92C513.032 54.6 513.458 54.1733 513.725 53.64C513.992 53.1067 514.178 52.52 514.285 51.88C514.392 51.1867 514.472 50.4933 514.525 49.8V43.24V41.08V32.6C513.298 32.6 512.152 32.7333 511.085 33C510.018 33.2667 509.085 33.7467 508.285 34.44C507.538 35.1333 506.952 36.04 506.525 37.16C506.098 38.2267 505.885 39.6133 505.885 41.32C505.885 41.8 505.885 42.4133 505.885 43.16C505.885 43.8533 505.885 44.6 505.885 45.4C505.885 46.1467 505.885 46.8933 505.885 47.64C505.885 48.3867 505.885 49.0533 505.885 49.64C505.885 51.6667 506.365 53.1333 507.325 54.04C508.338 54.9467 509.325 55.4 510.285 55.4ZM521.805 57H514.525V55C514.045 55.5867 513.512 56.12 512.925 56.6C512.392 57.0267 511.378 57.24 509.885 57.24C508.498 57.24 507.165 56.9733 505.885 56.44C504.605 55.8533 503.485 55.0533 502.525 54.04C501.565 52.9733 500.792 51.6933 500.205 50.2C499.618 48.7067 499.325 47.0533 499.325 45.24C499.325 41.72 499.885 39 501.005 37.08C502.178 35.16 503.565 33.7467 505.165 32.84C506.765 31.9333 508.418 31.4 510.125 31.24C511.885 31.0267 513.378 30.92 514.605 30.92V23.8C514.605 23 514.578 22.2533 514.525 21.56C514.525 20.8667 514.418 20.28 514.205 19.8C514.045 19.32 513.752 18.9467 513.325 18.68C512.952 18.36 512.392 18.2 511.645 18.2C510.525 18.2 509.538 18.44 508.685 18.92C507.885 19.4 507.298 20.12 506.925 21.08C506.605 21.9867 506.552 23.1333 506.765 24.52C507.032 25.9067 507.645 27.5067 508.605 29.32H507.645L501.885 24.76C502.312 23.7467 502.658 22.76 502.925 21.8C503.245 20.7867 503.725 19.9067 504.365 19.16C505.005 18.36 505.885 17.72 507.005 17.24C508.178 16.76 509.778 16.52 511.805 16.52C514.952 16.52 517.378 17.2667 519.085 18.76C520.845 20.2533 521.752 22.4933 521.805 25.48V57ZM568.754 0.999996C570.407 0.999996 572.06 1.18666 573.714 1.56C575.42 1.93333 576.94 2.62666 578.274 3.64C579.66 4.65333 580.78 6.01333 581.634 7.72C582.487 9.37333 582.914 11.5333 582.914 14.2C582.914 17.0267 582.594 19.4267 581.954 21.4C581.367 23.32 580.54 24.9733 579.474 26.36C578.407 27.7467 577.154 28.9467 575.714 29.96C574.327 30.9733 572.834 31.9867 571.234 33C569.687 33.96 568.087 35.0267 566.434 36.2C564.78 37.32 563.18 38.7333 561.634 40.44C560.14 42.0933 558.727 44.12 557.394 46.52C556.06 48.92 554.94 51.8533 554.034 55.32H565.634C568.94 55.32 571.66 54.7867 573.794 53.72C575.98 52.6533 577.74 51.48 579.074 50.2C580.62 48.76 581.82 47.08 582.674 45.16H583.634L580.834 57H552.354V55.32C553.26 51.48 554.46 48.2267 555.954 45.56C557.447 42.84 559.047 40.44 560.754 38.36C562.46 36.28 564.194 34.3867 565.954 32.68C567.767 30.9733 569.394 29.1867 570.834 27.32C572.274 25.4533 573.447 23.4 574.354 21.16C575.26 18.92 575.714 16.2 575.714 13C575.714 11.1333 575.527 9.56 575.154 8.28C574.78 6.94667 574.274 5.88 573.634 5.08C572.994 4.22666 572.247 3.61333 571.394 3.24C570.54 2.86666 569.66 2.68 568.754 2.68C568.007 2.68 567.074 2.81333 565.954 3.08C564.887 3.29333 563.82 3.88 562.754 4.84C561.74 5.74666 560.86 7.13333 560.114 9C559.42 10.8667 559.074 13.4533 559.074 16.76C559.074 17.9333 559.18 19.0533 559.394 20.12C559.66 21.1333 559.954 22.0133 560.274 22.76L559.394 23.32L551.394 10.6C552.354 9.32 553.42 8.09333 554.594 6.92C555.82 5.74667 557.154 4.73333 558.594 3.88C560.034 2.97333 561.607 2.28 563.314 1.8C565.02 1.26666 566.834 0.999996 568.754 0.999996ZM599.548 53.48C599.548 54.44 599.175 55.2667 598.428 55.96C597.735 56.6533 596.908 57 595.948 57C594.988 57 594.161 56.6533 593.468 55.96C592.775 55.2667 592.428 54.44 592.428 53.48C592.428 52.52 592.775 51.72 593.468 51.08C594.161 50.3867 594.988 50.04 595.948 50.04C596.908 50.04 597.735 50.3867 598.428 51.08C599.175 51.72 599.548 52.52 599.548 53.48ZM626.144 0.199997C628.544 0.199997 630.811 0.946664 632.944 2.44C635.078 3.93333 636.944 5.98666 638.544 8.6C640.198 11.2133 641.478 14.28 642.384 17.8C643.344 21.2667 643.824 25 643.824 29C643.824 33 643.344 36.76 642.384 40.28C641.478 43.7467 640.198 46.7867 638.544 49.4C636.944 52.0133 635.078 54.0667 632.944 55.56C630.811 57.0533 628.544 57.8 626.144 57.8C623.744 57.8 621.451 57.0533 619.264 55.56C617.131 54.0667 615.238 52.0133 613.584 49.4C611.984 46.7867 610.704 43.7467 609.744 40.28C608.838 36.76 608.384 33 608.384 29C608.384 25 608.838 21.2667 609.744 17.8C610.704 14.28 611.984 11.2133 613.584 8.6C615.238 5.98666 617.131 3.93333 619.264 2.44C621.451 0.946664 623.744 0.199997 626.144 0.199997ZM625.984 56.12C626.891 56.12 627.904 55.8533 629.024 55.32C630.144 54.7867 631.211 53.8533 632.224 52.52C633.238 51.1867 634.118 49.4267 634.864 47.24C635.611 45.0533 636.064 42.3067 636.224 39C636.331 37.0267 636.411 35.24 636.464 33.64C636.518 32.04 636.544 30.4933 636.544 29C636.544 27.4533 636.518 25.88 636.464 24.28C636.411 22.68 636.331 20.92 636.224 19C636.224 15.6933 635.878 12.9467 635.184 10.76C634.491 8.57333 633.611 6.81333 632.544 5.48C631.531 4.14666 630.411 3.21333 629.184 2.68C628.011 2.14667 626.944 1.88 625.984 1.88C625.024 1.88 623.958 2.14667 622.784 2.68C621.611 3.21333 620.491 4.14666 619.424 5.48C618.411 6.81333 617.531 8.57333 616.784 10.76C616.091 12.9467 615.744 15.6933 615.744 19C615.691 20.92 615.638 22.68 615.584 24.28C615.531 25.88 615.504 27.4533 615.504 29C615.504 30.4933 615.531 32.04 615.584 33.64C615.638 35.24 615.691 37.0267 615.744 39C615.851 42.3067 616.251 45.0533 616.944 47.24C617.691 49.4267 618.544 51.1867 619.504 52.52C620.518 53.8533 621.611 54.7867 622.784 55.32C623.958 55.8533 625.024 56.12 625.984 56.12Z" fill="#631819"/>
</svg>
