<svg width="36" height="36" viewBox="0 0 36 36" fill="none" xmlns="http://www.w3.org/2000/svg">
<path d="M18.0418 6.66165C17.4893 6.66165 16.9593 6.82574 16.5047 7.13551C16.503 7.13635 16.5014 7.13802 16.4997 7.13886C16.4913 7.14472 16.4821 7.14974 16.4729 7.15644C16.4561 7.16816 16.4402 7.18156 16.4252 7.19495C16.4235 7.19579 16.4227 7.19663 16.421 7.1983C16.4193 7.19998 16.4176 7.20249 16.416 7.20416C16.3942 7.22509 16.3741 7.24686 16.3574 7.2703C16.3548 7.27365 16.3523 7.27784 16.3498 7.28202C16.3339 7.30463 16.3197 7.32891 16.308 7.35402C16.3054 7.35905 16.3038 7.36407 16.3013 7.36909C16.2904 7.39337 16.282 7.41849 16.2753 7.44444C16.2736 7.4503 16.2728 7.45533 16.2711 7.46119C16.2653 7.48714 16.2619 7.51309 16.2602 7.53988C16.2602 7.54574 16.2602 7.55077 16.2594 7.55663C16.2586 7.58342 16.2602 7.60937 16.2636 7.63616C16.2644 7.64202 16.2653 7.64705 16.2661 7.65291C16.2703 7.67886 16.277 7.70481 16.2854 7.73077C16.287 7.73663 16.2895 7.74249 16.2921 7.74835C16.3013 7.77263 16.313 7.79691 16.3264 7.82035C16.3297 7.82621 16.3331 7.83123 16.3373 7.83709C16.3414 7.84379 16.3456 7.85133 16.3507 7.85802C16.3624 7.87477 16.3749 7.88984 16.3875 7.90407C16.3892 7.90574 16.39 7.90742 16.3917 7.90909L17.2155 8.80658L15.8986 10.4802C15.896 10.4835 15.8935 10.4877 15.8902 10.4919C15.8843 10.5003 15.8785 10.5078 15.8726 10.5162C15.8684 10.522 15.8651 10.5287 15.8609 10.5354C15.8567 10.543 15.8517 10.5505 15.8483 10.558C15.8441 10.5656 15.8408 10.5739 15.8366 10.5815C15.8333 10.5882 15.8307 10.594 15.8282 10.6007C15.824 10.6099 15.8207 10.6191 15.8182 10.6292C15.8165 10.635 15.8148 10.6401 15.8132 10.6459C15.8098 10.656 15.8073 10.6669 15.8048 10.6777C15.804 10.6828 15.8023 10.6878 15.8014 10.6928C15.7989 10.7037 15.7973 10.7146 15.7964 10.7255C15.7956 10.7305 15.7947 10.7355 15.7947 10.7405C15.7939 10.7514 15.7931 10.7623 15.7922 10.7732C15.7922 10.779 15.7922 10.7841 15.7922 10.7899C15.7922 10.8 15.7922 10.8109 15.7931 10.8209C15.7931 10.8268 15.7939 10.8326 15.7947 10.8393C15.7956 10.8494 15.7973 10.8586 15.7981 10.8686C15.7989 10.8745 15.7998 10.8812 15.8014 10.887C15.8031 10.8971 15.8056 10.9063 15.8081 10.9163C15.8098 10.9222 15.8115 10.9281 15.8132 10.9339C15.8165 10.944 15.8199 10.954 15.8232 10.9641C15.8249 10.9691 15.8266 10.9741 15.8291 10.9791C15.8333 10.99 15.8383 11.0009 15.8433 11.0118C15.845 11.0151 15.8467 11.0193 15.8492 11.0227C15.855 11.0344 15.8617 11.0461 15.8693 11.0578C15.8709 11.0603 15.8718 11.0629 15.8734 11.0654C15.8818 11.0779 15.8902 11.0897 15.8994 11.1014C15.9002 11.1022 15.9011 11.1039 15.9019 11.1047C15.9027 11.1056 15.9036 11.1064 15.9036 11.1072C15.9086 11.1131 15.9128 11.119 15.9178 11.1248C16.4394 11.7695 17.2121 12.1387 18.0427 12.1387C19.5521 12.1387 20.7795 10.9113 20.7795 9.40267C20.7787 7.889 19.5513 6.66165 18.0418 6.66165ZM18.0418 11.1298C17.6433 11.1298 17.2649 10.995 16.9618 10.7514L18.2695 9.08956C18.4219 8.89616 18.411 8.62072 18.2444 8.43905L17.5897 7.72658C17.7354 7.68723 17.8869 7.66547 18.0418 7.66547C18.9971 7.66547 19.774 8.4424 19.774 9.39765C19.774 10.3529 18.9971 11.1298 18.0418 11.1298Z" fill="#F7F9FC"/>
<path d="M30.9901 14.0023C31.2287 14.0023 31.4346 13.8349 31.4824 13.6005L31.9386 11.3685C31.9437 11.3433 31.9462 11.3182 31.9478 11.2923C31.9478 11.2864 31.9487 11.2814 31.9487 11.2755C31.9487 11.2722 31.9495 11.2688 31.9495 11.2655C31.9495 11.2454 31.9478 11.2253 31.9453 11.206C31.9445 11.2002 31.9437 11.1951 31.9428 11.1893C31.9395 11.1675 31.9353 11.1466 31.9294 11.1257C31.9286 11.1232 31.9277 11.1206 31.9277 11.1173C31.921 11.0947 31.9118 11.0738 31.9026 11.0528C31.9001 11.0478 31.8976 11.0419 31.8951 11.0369C31.885 11.0168 31.8733 10.9984 31.8608 10.98C31.8574 10.975 31.8532 10.9699 31.8491 10.9649C31.8373 10.9498 31.8256 10.9348 31.8122 10.9214C31.8072 10.9164 31.803 10.9113 31.798 10.9063C31.7837 10.8921 31.7678 10.8787 31.7519 10.867C31.7461 10.8628 31.7402 10.8586 31.7344 10.8544C31.7159 10.8418 31.6967 10.8301 31.6774 10.8201C31.6749 10.8184 31.6724 10.8167 31.6699 10.8151L18.1808 4.17599C18.0401 4.10734 17.876 4.10734 17.7362 4.17682L12.6703 6.68594C12.6703 6.68594 12.6703 6.68594 12.6694 6.68594L12.6661 6.68762C12.661 6.69013 12.6569 6.69264 12.6527 6.69515C12.6435 6.70017 12.6334 6.7052 12.6242 6.71106C12.6167 6.71608 12.61 6.7211 12.6024 6.72613C12.5966 6.73031 12.5899 6.7345 12.584 6.73868C12.5765 6.74455 12.569 6.75124 12.5614 6.75794C12.5564 6.76213 12.5514 6.76631 12.5472 6.7705C12.5397 6.7772 12.533 6.78389 12.5263 6.79143C12.5221 6.79645 12.517 6.80064 12.5129 6.80566C12.507 6.81236 12.5011 6.81906 12.4961 6.82659C12.4911 6.83245 12.4869 6.83831 12.4819 6.84501C12.4777 6.85171 12.4735 6.85757 12.4693 6.86427C12.4643 6.8718 12.4593 6.8785 12.4551 6.88687C12.4517 6.89273 12.4484 6.89859 12.4459 6.90445C12.4417 6.91282 12.4367 6.9212 12.4325 6.93041C12.43 6.93627 12.4275 6.94296 12.425 6.94882C12.4216 6.95803 12.4174 6.96641 12.4149 6.97562C12.4124 6.98315 12.4099 6.99152 12.4082 6.99906C12.4057 7.00659 12.4032 7.01413 12.4015 7.0225C12.399 7.03422 12.3965 7.04678 12.3948 7.05934C12.394 7.06269 12.3931 7.06603 12.3931 7.07022V7.07273C12.3931 7.07357 12.3931 7.07441 12.3931 7.07524L12.1612 8.71282C12.1395 8.86352 12.188 9.01589 12.2918 9.12724L12.9524 9.83217L11.396 10.1327C11.2972 10.152 11.2068 10.1997 11.1357 10.2709L10.4567 10.9507L9.35156 9.99459C9.18579 9.85059 8.94551 9.83217 8.75882 9.94771L6.87677 11.1123L4.6297 10.7732C4.62384 10.7724 4.61798 10.7724 4.61212 10.7715C4.60291 10.7707 4.59286 10.769 4.58365 10.769C4.57277 10.7682 4.56272 10.7682 4.55184 10.7682C4.54598 10.7682 4.54096 10.7682 4.53509 10.7682C4.52002 10.769 4.50579 10.7698 4.49156 10.7715C4.48989 10.7715 4.48821 10.7715 4.48654 10.7724C4.38523 10.7858 4.2923 10.8301 4.21863 10.8971C4.21863 10.8971 4.21863 10.8971 4.21779 10.8979C4.16003 10.9498 4.11482 11.016 4.08551 11.0913C4.08468 11.093 4.08384 11.0947 4.08384 11.0955C4.08216 11.1014 4.08049 11.1072 4.07798 11.1123C4.07463 11.1223 4.07128 11.1332 4.06793 11.1432C4.06709 11.1458 4.06709 11.1491 4.06626 11.1516C4.06291 11.165 4.0604 11.1792 4.05789 11.1926C4.05789 11.1935 4.05789 11.1935 4.05789 11.1943C4.05705 11.1968 4.05705 11.2002 4.05705 11.2027C4.05537 11.2161 4.0537 11.2295 4.05286 11.2429C4.05286 11.2487 4.05286 11.2546 4.05286 11.2613C4.05286 11.2713 4.05203 11.2814 4.05286 11.2923C4.05286 11.3015 4.05454 11.3107 4.05537 11.3207C4.05621 11.3274 4.05621 11.3341 4.05789 11.3408C4.05956 11.3534 4.06207 11.3659 4.06458 11.3785C4.06542 11.3818 4.06542 11.3852 4.06626 11.3885L4.0671 11.3927C4.0671 11.3936 4.06793 11.3952 4.06793 11.3961L4.60709 13.6231C4.66151 13.8483 4.86328 14.0073 5.09519 14.0073H6.47993V16.2778C6.47993 16.282 6.48077 16.2862 6.48077 16.2904C6.48077 16.3013 6.48161 16.3122 6.48244 16.3231C6.48328 16.3298 6.48412 16.3356 6.48496 16.3423C6.48579 16.3515 6.48747 16.3616 6.48914 16.3708C6.49082 16.3783 6.49249 16.3867 6.49416 16.3942C6.49584 16.4018 6.49835 16.4101 6.50003 16.4177C6.50254 16.4269 6.50589 16.4361 6.50923 16.4453C6.51175 16.452 6.51342 16.4578 6.51593 16.4637C6.52012 16.4738 6.5243 16.4838 6.52933 16.4938C6.531 16.498 6.53268 16.5014 6.53435 16.5056C6.53519 16.5064 6.53603 16.5081 6.53603 16.5089C6.54607 16.5282 6.55696 16.5466 6.56868 16.5642C6.57119 16.5684 6.57454 16.5717 6.57705 16.5759C6.58626 16.5893 6.59714 16.6018 6.60803 16.6136C6.61221 16.6186 6.6164 16.6228 6.62058 16.6278C6.63398 16.642 6.64821 16.6554 6.66328 16.6671C6.66663 16.6705 6.67082 16.673 6.675 16.6755C6.68756 16.6856 6.70096 16.6948 6.71435 16.7031C6.71937 16.7065 6.7244 16.709 6.72942 16.7124C6.74616 16.7224 6.76291 16.7308 6.78133 16.7392C6.78216 16.7392 6.783 16.74 6.783 16.74C6.80226 16.7484 6.82151 16.7551 6.84161 16.7609C6.84579 16.7626 6.85082 16.7634 6.855 16.7643C6.87091 16.7685 6.88598 16.7718 6.90272 16.7743C6.90858 16.7751 6.91444 16.776 6.9203 16.7768C6.93872 16.7793 6.95714 16.7802 6.97556 16.781C6.97723 16.781 6.97975 16.781 6.98142 16.781C6.98226 16.781 6.98309 16.781 6.98393 16.781H15.0019L15.7395 18.5098V26.1862L15.0019 27.9151H12.7289L11.9913 26.1854V18.4018C11.9913 18.4002 11.9913 18.3985 11.9913 18.396C11.9913 18.3918 11.9904 18.3876 11.9904 18.3834C11.9896 18.3541 11.9863 18.3257 11.9804 18.298C11.9796 18.2955 11.9787 18.2922 11.9779 18.2897C11.9712 18.2612 11.9628 18.2327 11.9511 18.2059C11.9494 18.2026 11.9477 18.1992 11.9469 18.1967C11.9352 18.1699 11.921 18.144 11.905 18.1205C11.9025 18.1172 11.9 18.1138 11.8967 18.1097C11.8799 18.0862 11.8615 18.0636 11.8406 18.0435C11.8389 18.0418 11.8381 18.0402 11.8372 18.0393C11.8347 18.0368 11.8314 18.0351 11.8289 18.0326C11.8088 18.0142 11.787 17.9966 11.7636 17.9816C11.7577 17.9782 11.7518 17.9749 11.7468 17.9715C11.7242 17.9581 11.7016 17.9464 11.6773 17.9364C11.6706 17.9338 11.6648 17.9313 11.6581 17.9297C11.6338 17.9213 11.6095 17.9138 11.5836 17.9087C11.5769 17.9071 11.5702 17.9071 11.5635 17.9054C11.5392 17.902 11.5141 17.8995 11.489 17.8995C11.4881 17.8995 11.4873 17.8995 11.4864 17.8995C11.4806 17.8995 11.4739 17.9004 11.468 17.9004C11.4404 17.9012 11.4136 17.9045 11.3877 17.9096C11.3835 17.9104 11.3801 17.9121 11.3759 17.9129C11.3483 17.9196 11.3224 17.9271 11.2964 17.938C11.2922 17.9397 11.2889 17.9414 11.2847 17.9431C11.2579 17.9548 11.2319 17.969 11.2077 17.9849C11.2043 17.9866 11.2018 17.9891 11.1984 17.9916C11.1742 18.0092 11.1507 18.0285 11.1298 18.0494C11.129 18.0502 11.1273 18.0511 11.1264 18.0519L9.72161 19.5086C9.63956 19.594 9.59016 19.7054 9.58179 19.8234L9.47798 21.3589L9.18077 22.0671L8.24979 21.127C8.15854 21.0324 8.03044 20.9729 7.88896 20.9729C7.82365 20.9729 7.7617 20.9855 7.70393 21.0081C7.70309 21.0081 7.70226 21.0089 7.70058 21.0089C7.67128 21.0206 7.64282 21.0357 7.61686 21.0525C7.61519 21.0533 7.61435 21.0541 7.61268 21.055C7.58505 21.0734 7.5591 21.0943 7.53565 21.1169C7.53565 21.1169 7.53482 21.1169 7.53482 21.1178C7.51137 21.1412 7.48961 21.1672 7.47119 21.1948C7.47035 21.1965 7.46951 21.1981 7.46784 21.1998C7.45109 21.2258 7.43686 21.2525 7.4243 21.281C7.42347 21.2835 7.42263 21.286 7.42179 21.2885C7.41091 21.3162 7.4017 21.3446 7.39584 21.3739C7.395 21.3765 7.395 21.379 7.395 21.3815C7.38998 21.4083 7.38747 21.4367 7.38663 21.4652C7.38663 21.4685 7.38579 21.4719 7.38579 21.4744V26.177L6.64737 27.9067H5.97426C5.77668 27.9067 5.59835 28.0222 5.5163 28.2022L4.17593 31.1643C4.10561 31.32 4.119 31.5 4.21109 31.644C4.30319 31.788 4.46226 31.8742 4.63305 31.8742H31.4438C31.6146 31.8742 31.7737 31.7872 31.8658 31.644C31.9579 31.5008 31.9713 31.32 31.901 31.1643L30.5606 28.2022C30.4794 28.0222 30.3002 27.9067 30.1026 27.9067H29.4304L28.6928 26.1778V18.5015L29.5601 16.4679C29.5735 16.4369 29.5836 16.4043 29.5911 16.3699C29.5978 16.3365 29.6011 16.3021 29.6011 16.2686V13.9998H30.9901V14.0023ZM21.0817 27.91L20.3441 26.1812V18.5048L21.0817 16.776H23.3556L24.0931 18.5048V26.1812L23.3556 27.91H21.0817ZM16.745 19.7322L17.573 20.6724L17.8442 22.1618L16.745 22.7294V19.7322ZM16.745 24.4683L17.7304 25.0945C17.8141 25.1472 17.907 25.1732 17.9991 25.1732C18.1649 25.1732 18.3281 25.0911 18.4236 24.9405C18.5726 24.706 18.5031 24.3963 18.2695 24.2472L17.2498 23.5992L18.6354 22.8834C18.8313 22.7821 18.9384 22.5645 18.8991 22.3468L18.5366 20.3542C18.5198 20.2646 18.4797 20.1809 18.4194 20.1123L17.3544 18.9033H19.3395V25.7802H16.7458V24.4683H16.745ZM25.0978 18.9033H27.6915V25.7802H25.0978V18.9033ZM27.8623 17.8987H24.927L24.4473 16.7743H28.342L27.8623 17.8987ZM28.5998 15.7705H23.6871C23.6854 15.7705 23.6837 15.7705 23.6829 15.7705H20.7527C20.7518 15.7705 20.751 15.7705 20.7502 15.7705H15.3351C15.3334 15.7705 15.3317 15.7705 15.3309 15.7705H9.07528L9.70319 15.4507C9.84886 15.3762 9.94933 15.2364 9.97277 15.0748L10.0917 14.2451L12.4149 15.341C12.4844 15.3737 12.5572 15.3896 12.6292 15.3896C12.8176 15.3896 12.9984 15.2832 13.0838 15.1016C13.2019 14.8504 13.0947 14.5515 12.8436 14.4326L11.9327 14.0031H28.6007V15.7705H28.5998ZM7.48458 15.4524V14.0023H9.11044L9.01416 14.6738L7.48458 15.4524ZM11.7351 11.0855L13.5887 10.728L13.9043 11.777C13.9696 11.9947 14.1689 12.1345 14.3849 12.1345C14.4326 12.1345 14.482 12.1278 14.5297 12.1127C14.7951 12.0324 14.9458 11.7527 14.8663 11.4873L14.42 10.0038C14.4184 9.99794 14.4158 9.99208 14.4133 9.98538C14.4117 9.97952 14.4091 9.97366 14.4066 9.9678C14.3999 9.95106 14.3932 9.93515 14.3857 9.92008C14.3849 9.91757 14.384 9.91589 14.3823 9.91338C14.3723 9.89496 14.3614 9.87738 14.3497 9.86064C14.3472 9.85729 14.3455 9.85478 14.343 9.85227C14.333 9.83803 14.3212 9.82464 14.3104 9.81208C14.3087 9.81041 14.307 9.80789 14.3053 9.80538L13.1868 8.61236L13.3484 7.47041L17.9581 5.18734L29.2889 10.764H24.2288C23.9517 10.764 23.7264 10.9892 23.7264 11.2663C23.7264 11.5434 23.9517 11.7686 24.2288 11.7686H30.8318L30.5807 12.9985H10.4475L10.9037 11.9185L11.7351 11.0855ZM5.21658 11.8733L6.90691 12.1286C7.02496 12.1462 7.14468 12.1219 7.24598 12.0591L8.97063 10.9917L9.87398 11.7728L9.35658 12.9977H5.48868L5.21658 11.8733ZM19.9891 16.7751L19.5094 17.8995H16.5742L16.0944 16.7751H19.9891ZM16.5742 26.7857H19.5094L19.9891 27.91H16.0944L16.5742 26.7857ZM10.4759 21.5112L10.573 20.0754L10.9866 19.6468V25.781H8.39296V22.6992L8.9204 23.2317L9.24775 24.1325C9.32226 24.3368 9.51482 24.4632 9.71993 24.4632C9.77686 24.4632 9.83463 24.4532 9.89156 24.4331C10.1519 24.3385 10.2867 24.0505 10.1921 23.7893L9.89407 22.9688L10.4383 21.6712C10.4592 21.6201 10.4717 21.5665 10.4759 21.5112ZM8.22216 26.7857H11.1574L11.6371 27.91H7.74244L8.22216 26.7857ZM6.30077 28.9147H6.73444L7.76589 30.2567C7.86133 30.3806 8.00784 30.4526 8.1644 30.4526C8.16523 30.4526 8.16607 30.4526 8.16691 30.4526L11.6681 30.4359L12.0306 30.8712H5.415L6.30077 28.9147ZM30.6686 30.8712H13.3375L12.2885 29.6112C12.193 29.4965 12.0516 29.4304 11.9025 29.4304C11.9017 29.4304 11.9009 29.4304 11.9 29.4304L8.41137 29.4472L8.00198 28.9147H12.3957C12.3965 28.9147 12.3973 28.9147 12.3982 28.9147C12.399 28.9147 12.4007 28.9147 12.4015 28.9147H15.3284C15.3317 28.9147 15.3351 28.9147 15.3384 28.9147H20.7485C20.7493 28.9147 20.7502 28.9147 20.751 28.9147C20.7518 28.9147 20.7535 28.9147 20.7544 28.9147H23.6821C23.6854 28.9147 23.6888 28.9147 23.6921 28.9147H29.1022C29.103 28.9147 29.1038 28.9147 29.1047 28.9147C29.1055 28.9147 29.1072 28.9147 29.108 28.9147H29.7853L30.6686 30.8712ZM24.4473 27.91L24.927 26.7857H27.8623L28.342 27.91H24.4473Z" fill="#F7F9FC"/>
</svg>
