<svg width="36" height="36" viewBox="0 0 36 36" fill="none" xmlns="http://www.w3.org/2000/svg">
<path d="M24.7027 32.1966C24.5076 32.1966 24.3226 32.0827 24.2406 31.8918L18.4931 18.4965C18.3835 18.242 18.5015 17.9464 18.7568 17.8368C19.0122 17.7271 19.3069 17.8451 19.4166 18.1005L25.164 31.4958C25.2737 31.7512 25.1556 32.0459 24.9003 32.1555C24.8367 32.1832 24.7688 32.1966 24.7027 32.1966Z" fill="#F7F9FC"/>
<path d="M11.2977 32.2049C11.2316 32.2049 11.1646 32.1916 11.1001 32.1639C10.8456 32.0542 10.7276 31.7596 10.8364 31.5042L16.5872 18.1022C16.6969 17.8476 16.9916 17.7288 17.2469 17.8384C17.5014 17.9481 17.6195 18.2428 17.5106 18.4982L11.7598 31.9002C11.6778 32.0902 11.4928 32.2049 11.2977 32.2049Z" fill="#F7F9FC"/>
<path d="M29.1712 32.2049H6.82947C6.55236 32.2049 6.32715 31.9797 6.32715 31.7026C6.32715 31.4255 6.55236 31.2003 6.82947 31.2003H29.1721C29.4492 31.2003 29.6744 31.4255 29.6744 31.7026C29.6744 31.9797 29.4492 32.2049 29.1712 32.2049Z" fill="#F7F9FC"/>
<path d="M18.3672 26.7371C18.1052 26.7455 17.8934 26.7455 17.6321 26.7371C17.3567 26.7271 17.1223 26.9456 17.1131 27.2227C17.1039 27.4998 17.3215 27.7326 17.5987 27.7409C17.741 27.746 17.8716 27.7476 17.9997 27.7476C18.1278 27.7476 18.2584 27.7451 18.4007 27.7409C18.6778 27.7317 18.8955 27.4998 18.8863 27.2227C18.8771 26.9456 18.6418 26.7271 18.3672 26.7371Z" fill="#F7F9FC"/>
<path d="M13.9079 6.19618C15.2047 5.65702 16.5811 5.38409 17.9994 5.38409C19.4578 5.38409 20.8701 5.67293 22.198 6.24139C22.2624 6.26902 22.3294 6.28242 22.3955 6.28242C22.5906 6.28242 22.7756 6.16855 22.8577 5.97767C22.9674 5.72232 22.8485 5.42762 22.594 5.31795C21.1406 4.69507 19.5951 4.3786 18.0002 4.3786C16.4488 4.3786 14.9427 4.67748 13.5236 5.26772C13.2674 5.37404 13.1461 5.6679 13.2524 5.92409C13.3579 6.18111 13.6526 6.30251 13.9079 6.19618Z" fill="#F7F9FC"/>
<path d="M15.9885 26.5546C15.2367 26.4114 14.4983 26.1854 13.7942 25.8832C11.7924 25.025 10.1189 23.5951 8.95597 21.7465C8.80779 21.5121 8.49802 21.4409 8.2636 21.5891C8.02918 21.7373 7.95802 22.0471 8.10621 22.2815C9.37876 24.3034 11.2089 25.8681 13.399 26.8066C14.1693 27.1373 14.978 27.3851 15.801 27.5417C15.8328 27.5475 15.8646 27.5509 15.8956 27.5509C16.1317 27.5509 16.3427 27.3834 16.3887 27.1423C16.4406 26.8694 16.2615 26.6065 15.9885 26.5546Z" fill="#F7F9FC"/>
<path d="M7.32008 16.0635C7.32008 13.4406 8.27952 10.9189 10.0226 8.96316C10.2076 8.75637 10.1892 8.43823 9.98157 8.25404C9.77478 8.06985 9.45748 8.08744 9.27245 8.29506C7.36529 10.435 6.31543 13.1944 6.31543 16.0635C6.31543 16.3582 6.32631 16.6571 6.34892 16.9535C6.36817 17.2172 6.5892 17.419 6.84957 17.419C6.86213 17.419 6.87469 17.4181 6.88724 17.4173C7.16352 17.3964 7.37115 17.1561 7.35106 16.879C7.33013 16.6069 7.32008 16.3323 7.32008 16.0635Z" fill="#F7F9FC"/>
<path d="M26.8193 8.40055C26.6376 8.19125 26.3203 8.16948 26.111 8.35116C25.9017 8.53367 25.8799 8.85014 26.0616 9.05944C27.7494 11.0001 28.6796 13.4866 28.6796 16.0627C28.6796 16.3323 28.6695 16.606 28.6494 16.8773C28.6285 17.1536 28.8361 17.3947 29.1132 17.4156C29.1258 17.4165 29.1384 17.4173 29.1509 17.4173C29.4113 17.4173 29.6315 17.2164 29.6516 16.9518C29.6733 16.6554 29.685 16.3566 29.685 16.0619C29.6834 13.2446 28.6662 10.5237 26.8193 8.40055Z" fill="#F7F9FC"/>
<path d="M26.8951 18.4253L20.9023 16.4779C20.9216 16.3406 20.9333 16.2025 20.9333 16.0635C20.9333 15.2975 20.6294 14.5641 20.1045 14.0224L23.3503 9.5559C23.5136 9.33153 23.4633 9.01757 23.239 8.85432C23.0146 8.69106 22.7006 8.74129 22.5374 8.96567L19.2915 13.433C18.893 13.2363 18.4543 13.1325 18.0005 13.1325C17.5459 13.1325 17.1081 13.2363 16.7096 13.433L13.5106 9.03181C13.3473 8.80743 13.0334 8.75804 12.809 8.92046C12.5846 9.08371 12.5352 9.39767 12.6977 9.62204L15.8966 14.0241C15.3709 14.5658 15.067 15.2983 15.067 16.0644C15.067 16.0727 15.067 16.0811 15.067 16.0895C15.0678 16.2201 15.0795 16.3499 15.0979 16.4788L9.10603 18.4253C8.84231 18.5107 8.69748 18.7945 8.78371 19.0582C8.85236 19.2709 9.04994 19.4057 9.26175 19.4057C9.31282 19.4057 9.36557 19.3973 9.41664 19.3814L15.4077 17.4349C15.6949 17.9791 16.1478 18.4228 16.7071 18.6974C16.7548 18.7208 16.8025 18.7426 16.8519 18.7635C16.9021 18.7845 16.9524 18.8046 17.0026 18.823C17.0126 18.8263 17.0235 18.8297 17.0336 18.8339C17.0763 18.8489 17.119 18.8623 17.1617 18.8757C17.1692 18.8782 17.1776 18.8799 17.1851 18.8824C17.232 18.8958 17.2797 18.9084 17.3274 18.9201C17.3308 18.9209 17.3341 18.9218 17.3383 18.9226C17.3911 18.9352 17.4446 18.9452 17.4974 18.9544V24.5754C17.4974 24.8526 17.7226 25.0778 17.9997 25.0778C18.2768 25.0778 18.502 24.8526 18.502 24.5754V18.9544C18.5556 18.9452 18.6092 18.9343 18.6628 18.9218C18.667 18.9209 18.6703 18.9201 18.6745 18.9192C18.7222 18.9075 18.7699 18.8958 18.8177 18.8816C18.826 18.8791 18.8336 18.8774 18.8419 18.8749C18.8855 18.8623 18.9282 18.8481 18.9709 18.833C18.9809 18.8297 18.9918 18.8263 19.0018 18.8221C19.0529 18.8037 19.104 18.7836 19.1542 18.7627C19.7763 18.4956 20.2811 18.0251 20.5925 17.4357L26.5845 19.3831C26.6364 19.3998 26.6883 19.4082 26.7402 19.4082C26.952 19.4082 27.1487 19.2734 27.2182 19.0607C27.3028 18.7945 27.1588 18.5107 26.8951 18.4253ZM19.8332 16.6588C19.6616 17.1879 19.2698 17.6174 18.7582 17.8359C18.5179 17.9389 18.2626 17.9908 17.9997 17.9908C17.7377 17.9908 17.484 17.9389 17.2454 17.8376C17.2136 17.8242 17.1818 17.8091 17.1508 17.794C17.1407 17.789 17.1307 17.7832 17.1206 17.7781C17.0997 17.7672 17.0788 17.7572 17.0587 17.7455C17.0419 17.7363 17.026 17.7262 17.0101 17.717C16.9967 17.7086 16.9833 17.7011 16.9699 17.6927C16.9473 17.6785 16.9247 17.6634 16.903 17.6475C16.8971 17.6433 16.8904 17.6392 16.8845 17.635C16.5488 17.3972 16.296 17.0565 16.1671 16.6588C16.1671 16.6579 16.1671 16.6571 16.1662 16.6571C16.1034 16.4654 16.0725 16.2653 16.0725 16.0619C16.0725 16.0585 16.0725 16.0543 16.0725 16.051C16.0758 15.4415 16.3713 14.8646 16.8661 14.5046C16.8661 14.5046 16.867 14.5038 16.8678 14.5038C16.8678 14.5038 16.8686 14.503 16.8695 14.503C17.1985 14.2619 17.5903 14.1354 18.0005 14.1354C18.0516 14.1354 18.1027 14.1371 18.1538 14.1413C18.5079 14.1689 18.8436 14.2928 19.1333 14.5046C19.5067 14.7751 19.7671 15.1702 19.8742 15.6106C19.9102 15.7571 19.9286 15.9086 19.9286 16.0627C19.9278 16.267 19.896 16.4671 19.8332 16.6588Z" fill="#F7F9FC"/>
<path d="M27.4693 21.5113C27.286 21.5113 27.1261 21.6092 27.0382 21.7557C25.8736 23.5993 24.2042 25.025 22.2091 25.8815C21.5059 26.1837 20.7666 26.4098 20.0123 26.5538C19.7402 26.6057 19.561 26.8686 19.613 27.1415C19.659 27.3826 19.8691 27.5501 20.1061 27.5501C20.137 27.5501 20.1689 27.5475 20.2007 27.5408C21.027 27.3834 21.8366 27.1365 22.6068 26.8049C24.7928 25.8664 26.6212 24.3025 27.8955 22.2823C27.9457 22.202 27.9725 22.109 27.9725 22.0144V22.0136C27.9717 21.7356 27.7473 21.5113 27.4693 21.5113Z" fill="#F7F9FC"/>
<path d="M26.5581 4.52093C26.1277 4.05963 25.5191 3.79507 24.8878 3.79507H24.1528C23.5215 3.79507 22.9129 4.05963 22.4825 4.52093C22.0522 4.98224 21.8303 5.60847 21.8747 6.23721L22.0263 8.41312C22.0932 9.37675 22.9028 10.1311 23.8681 10.1311H25.1725C26.1386 10.1311 26.9474 9.37675 27.0143 8.41312L27.1659 6.23638C27.2103 5.60847 26.9884 4.98307 26.5581 4.52093ZM23.2168 5.20661C23.4612 4.94456 23.7936 4.79973 24.1519 4.79973H24.887C25.2453 4.79973 25.5777 4.94456 25.8222 5.20661C26.0666 5.46866 26.188 5.81024 26.1629 6.16856L26.1428 6.46159H22.8961L22.876 6.16856C22.8509 5.81024 22.9723 5.46866 23.2168 5.20661ZM25.1725 9.12726H23.8681C23.4277 9.12726 23.0585 8.78317 23.0284 8.34363L22.9673 7.4654H26.0742L26.013 8.34363C25.9812 8.784 25.612 9.12726 25.1725 9.12726Z" fill="#F7F9FC"/>
<path d="M20.0381 24.7965C19.6077 24.3352 18.9991 24.0706 18.3678 24.0706H17.6327C17.0015 24.0706 16.3928 24.3352 15.9625 24.7965C15.5322 25.2578 15.3103 25.884 15.3547 26.5136L15.5062 28.6895C15.5732 29.6531 16.3828 30.4075 17.3481 30.4075H18.6525C19.6186 30.4075 20.4274 29.6531 20.4943 28.6895L20.6459 26.5136C20.6902 25.884 20.4684 25.2586 20.0381 24.7965ZM16.6967 25.4822C16.9412 25.2201 17.2736 25.0753 17.6319 25.0753H18.367C18.7253 25.0753 19.0577 25.2201 19.3021 25.4822C19.5466 25.7442 19.668 26.0858 19.6429 26.4441L19.6228 26.7371H16.3761L16.356 26.4441C16.3317 26.0858 16.4523 25.7442 16.6967 25.4822ZM18.6525 29.4036H17.3481C16.9077 29.4036 16.5385 29.0595 16.5084 28.62L16.4473 27.7418H19.5541L19.493 28.62C19.4621 29.0595 19.0928 29.4036 18.6525 29.4036Z" fill="#F7F9FC"/>
<path d="M30.9165 17.1385C30.4861 16.6772 29.8775 16.4127 29.2462 16.4127H28.5112C27.8799 16.4127 27.2713 16.6772 26.8409 17.1385C26.4106 17.5998 26.1887 18.2261 26.2331 18.8556L26.3847 21.0315C26.4516 21.9952 27.2612 22.7495 28.2265 22.7495H29.5309C30.497 22.7495 31.3058 21.9952 31.3727 21.0315L31.5243 18.8556C31.5678 18.2261 31.3468 17.6007 30.9165 17.1385ZM27.5752 17.8242C27.8196 17.5621 28.152 17.4173 28.5103 17.4173H29.2454C29.6037 17.4173 29.9361 17.5621 30.1806 17.8242C30.425 18.0862 30.5464 18.4278 30.5213 18.7861L30.5012 19.0792H27.2545L27.2344 18.7861C27.2093 18.4278 27.3307 18.0862 27.5752 17.8242ZM29.5301 21.7457H28.2257C27.7853 21.7457 27.4161 21.4016 27.386 20.9621L27.3248 20.0838H30.4317L30.3706 20.9621C30.3396 21.4016 29.9704 21.7457 29.5301 21.7457Z" fill="#F7F9FC"/>
<path d="M13.6377 4.52093C13.2073 4.05963 12.5987 3.79507 11.9674 3.79507H11.2324C10.6011 3.79507 9.99245 4.05963 9.56212 4.52093C9.1318 4.98224 8.90994 5.60847 8.95431 6.23721L9.10585 8.41312C9.17282 9.37675 9.9824 10.1311 10.9477 10.1311H12.2521C13.2182 10.1311 14.027 9.37675 14.0939 8.41312L14.2455 6.23638C14.2898 5.60847 14.068 4.98307 13.6377 4.52093ZM13.0918 8.34447C13.0608 8.784 12.6925 9.1281 12.2521 9.1281H10.9477C10.5073 9.1281 10.1381 8.784 10.108 8.34447L10.0469 7.46624H13.1538L13.0918 8.34447ZM13.2433 6.16773L13.2232 6.46075H9.97654L9.95645 6.16773C9.93133 5.81024 10.0527 5.46866 10.2972 5.20577C10.5417 4.94289 10.874 4.79889 11.2324 4.79889H11.9674C12.3258 4.79889 12.6581 4.94373 12.9026 5.20577C13.1479 5.46866 13.2684 5.81024 13.2433 6.16773Z" fill="#F7F9FC"/>
<path d="M7.48989 16.4127H6.75482C6.12356 16.4127 5.51491 16.6772 5.08459 17.1385C4.65426 17.5998 4.4324 18.2261 4.47677 18.8556L4.62831 21.0315C4.69528 21.9952 5.50486 22.7495 6.47017 22.7495H7.77454C8.74068 22.7495 9.54942 21.9952 9.6164 21.0315L9.76793 18.8556C9.81147 18.2261 9.59045 17.6007 9.16012 17.1385C8.72896 16.6772 8.12031 16.4127 7.48989 16.4127ZM5.81882 17.8242C6.06328 17.5621 6.39566 17.4173 6.75398 17.4173H7.48905C7.84738 17.4173 8.17975 17.5621 8.42421 17.8242C8.66868 18.0862 8.79007 18.4278 8.76496 18.7861L8.74486 19.0792H5.49817L5.47807 18.7861C5.45296 18.4278 5.57435 18.0862 5.81882 17.8242ZM7.7737 21.7457H6.47017C6.02979 21.7457 5.66059 21.4016 5.63045 20.9621L5.56933 20.0838H8.67621L8.6151 20.9621C8.58328 21.4016 8.21407 21.7457 7.7737 21.7457Z" fill="#F7F9FC"/>
</svg>
