<svg width="36" height="36" viewBox="0 0 36 36" fill="none" xmlns="http://www.w3.org/2000/svg">
<path d="M26.0347 29.6891H20.9554C20.7921 29.6891 20.6381 29.6154 20.5351 29.489C20.4321 29.3626 20.3919 29.196 20.4246 29.0361L22.737 17.9263H19.543C19.2433 17.9263 19.0005 17.6835 19.0005 17.3846V6.85256C19.0005 6.55284 19.2433 6.31088 19.543 6.31088H30.0701C30.3698 6.31088 30.6126 6.55367 30.6126 6.85256V17.3846C30.6126 17.4441 30.6025 17.5035 30.5833 17.5605L26.5479 29.3233C26.4726 29.5418 26.2666 29.6891 26.0347 29.6891ZM21.6226 28.6049H25.6479L29.5292 17.2942V7.39507H20.0855V16.843H23.4034C23.5666 16.843 23.7207 16.9166 23.8237 17.0431C23.9266 17.1695 23.9668 17.3361 23.9342 17.496L21.6226 28.6049Z" fill="#F7F9FC"/>
<path d="M12.421 29.6891H7.3416C7.17835 29.6891 7.0243 29.6154 6.92132 29.489C6.81835 29.3626 6.77816 29.196 6.81081 29.0361L9.12318 17.9263H5.92923C5.62951 17.9263 5.38672 17.6835 5.38672 17.3846V6.85256C5.38672 6.55284 5.62951 6.31088 5.92923 6.31088H16.4563C16.756 6.31088 16.9988 6.55367 16.9988 6.85256V17.3846C16.9988 17.4441 16.9888 17.5035 16.9695 17.5605L12.9333 29.3224C12.858 29.5418 12.652 29.6891 12.421 29.6891ZM8.00802 28.6049H12.0333L15.9146 17.2942V7.39507H6.47174V16.843H9.7896C9.95286 16.843 10.1069 16.9166 10.2099 17.0431C10.3129 17.1695 10.353 17.3361 10.3204 17.496L8.00802 28.6049Z" fill="#F7F9FC"/>
</svg>
