<svg width="36" height="36" viewBox="0 0 36 36" fill="none" xmlns="http://www.w3.org/2000/svg">
<path d="M31.1789 33.0497H24.6755C24.3842 33.0497 24.1481 32.8136 24.1481 32.5222C24.1481 32.2309 24.3842 31.9948 24.6755 31.9948H30.6515V23.7056L24.3992 19.8678C24.1514 19.7154 24.0735 19.3906 24.2259 19.1419C24.3783 18.8933 24.7031 18.8163 24.9518 18.9686L31.4552 22.9605C31.6118 23.0567 31.7064 23.2267 31.7064 23.41V32.5214C31.7064 32.8136 31.4703 33.0497 31.1789 33.0497Z" fill="#F7F9FC"/>
<path d="M11.3239 33.0497H4.82041C4.52906 33.0497 4.29297 32.8136 4.29297 32.5222V23.4109C4.29297 23.2275 4.38841 23.0576 4.54413 22.9613L11.0476 18.9695C11.2962 18.8171 11.6202 18.895 11.7734 19.1428C11.9266 19.3906 11.8479 19.7154 11.6001 19.8686L5.34785 23.7064V31.9956H11.3239C11.6152 31.9956 11.8513 32.2317 11.8513 32.5231C11.8513 32.8144 11.6152 33.0497 11.3239 33.0497Z" fill="#F7F9FC"/>
<path d="M18.0265 9.51069C17.7351 9.51069 17.499 9.2746 17.499 8.98325V3.47776C17.499 3.18641 17.7351 2.95032 18.0265 2.95032C18.3178 2.95032 18.5539 3.18641 18.5539 3.47776V8.98325C18.5539 9.27376 18.3178 9.51069 18.0265 9.51069Z" fill="#F7F9FC"/>
<path d="M20.2613 6.23887H15.7931C15.5017 6.23887 15.2656 6.00278 15.2656 5.71143C15.2656 5.42008 15.5017 5.18399 15.7931 5.18399H20.2613C20.5526 5.18399 20.7887 5.42008 20.7887 5.71143C20.7887 6.00278 20.5526 6.23887 20.2613 6.23887Z" fill="#F7F9FC"/>
<path d="M21.378 33.0497H14.6217C14.3303 33.0497 14.0942 32.8136 14.0942 32.5222V25.8463C14.0942 23.693 15.8465 21.9407 17.9998 21.9407C20.1531 21.9407 21.9054 23.693 21.9054 25.8463V32.5222C21.9054 32.8136 21.6693 33.0497 21.378 33.0497ZM15.1491 31.9948H20.8505V25.8463C20.8505 24.274 19.5721 22.9956 17.9998 22.9956C16.4275 22.9956 15.1491 24.274 15.1491 25.8463V31.9948Z" fill="#F7F9FC"/>
<path d="M17.9996 19.9725C16.3093 19.9725 14.9346 18.5978 14.9346 16.9074C14.9346 15.2171 16.3093 13.8424 17.9996 13.8424C19.6899 13.8424 21.0646 15.2171 21.0646 16.9074C21.0646 18.5969 19.6899 19.9725 17.9996 19.9725ZM17.9996 14.8973C16.8911 14.8973 15.9895 15.799 15.9895 16.9074C15.9895 18.0159 16.8911 18.9176 17.9996 18.9176C19.1081 18.9176 20.0097 18.0159 20.0097 16.9074C20.0097 15.799 19.1081 14.8973 17.9996 14.8973Z" fill="#F7F9FC"/>
<path d="M24.6756 33.0497H11.3238C11.0325 33.0497 10.7964 32.8136 10.7964 32.5222V15.5788C10.7964 15.4373 10.8533 15.3017 10.9538 15.2029L17.6565 8.60735C17.8633 8.40391 18.1948 8.40558 18.3991 8.6107L25.0482 15.2598C25.147 15.3586 25.2022 15.4926 25.2022 15.6324V32.5231C25.2031 32.8136 24.967 33.0497 24.6756 33.0497ZM11.8513 31.9948H24.1482V15.8509L18.0232 9.72586L11.8513 15.7998V31.9948Z" fill="#F7F9FC"/>
</svg>
