<svg width="36" height="36" viewBox="0 0 36 36" fill="none" xmlns="http://www.w3.org/2000/svg">
<path d="M25.5265 30.6753C25.3674 30.6753 25.2167 30.6251 25.0744 30.533C25.066 30.5246 25.0576 30.5246 25.0576 30.5163L17.8995 24.8819L10.7916 30.3739C10.7832 30.3739 10.7832 30.3823 10.7749 30.3823C10.4986 30.5749 10.1386 30.5749 9.8623 30.3823C9.59439 30.1814 9.47718 29.8381 9.57765 29.52L12.2902 21.0056L5.14881 15.8567C4.87253 15.6558 4.7637 15.3126 4.86416 14.986C4.96463 14.6679 5.26602 14.4502 5.60091 14.4502H14.3916L17.1795 5.86046C17.2883 5.54232 17.5814 5.32465 17.9163 5.32465C18.2511 5.32465 18.5442 5.53395 18.653 5.85209L21.4828 14.5005H30.399C30.7339 14.5005 31.0353 14.7181 31.1358 15.0363C31.2363 15.3628 31.119 15.706 30.8511 15.907L23.5842 21.0893L26.2716 29.6539C26.3804 29.9721 26.2716 30.3153 26.0037 30.5163C25.853 30.6251 25.6939 30.6753 25.5265 30.6753ZM10.5488 29.8214C10.5488 29.8298 10.5488 29.8298 10.5488 29.8214V29.8214ZM17.9079 23.8186C18.067 23.8186 18.226 23.8688 18.36 23.9609C18.3683 23.9693 18.3767 23.9693 18.3767 23.9777L25.0911 29.2605L22.5795 21.2484C22.4707 20.9302 22.5879 20.5702 22.8642 20.3693L29.679 15.5051H21.3153C20.9804 15.5051 20.6874 15.2958 20.5786 14.9777L17.9163 6.83999L15.2958 14.9191C15.187 15.2372 14.8939 15.4549 14.559 15.4549H6.31253L13.0186 20.2856C13.2949 20.4865 13.4037 20.8298 13.3032 21.1563L10.7665 29.1265L17.439 23.9693C17.4474 23.9693 17.4474 23.9609 17.4558 23.9609C17.5897 23.8688 17.7488 23.8186 17.9079 23.8186Z" fill="#F7F9FC"/>
</svg>
