<svg width="36" height="36" viewBox="0 0 36 36" fill="none" xmlns="http://www.w3.org/2000/svg">
<path d="M18.0151 19.9532H17.8945C14.8948 19.9532 12.4543 17.5127 12.4543 14.513V12.091C12.4543 11.8139 12.6796 11.5886 12.9567 11.5886C13.2338 11.5886 13.459 11.8139 13.459 12.091V14.513C13.459 16.9585 15.449 18.9486 17.8945 18.9486H18.0151C20.4606 18.9486 22.4506 16.9585 22.4506 14.513V11.8038C22.4506 11.5267 22.6758 11.3015 22.953 11.3015C23.2301 11.3015 23.4553 11.5267 23.4553 11.8038V14.513C23.4553 17.5127 21.0148 19.9532 18.0151 19.9532Z" fill="#F7F9FC"/>
<path d="M19.9993 32.3004H15.7999C15.0246 32.3004 14.529 32.0492 14.0041 31.783C13.3502 31.4514 12.6093 31.0755 10.9575 30.9441H9.41029C8.45168 30.9441 7.67224 30.1646 7.67224 29.206V26.6643C7.67224 22.8859 10.7456 19.8126 14.524 19.8126H14.745V18.6823C14.745 18.4052 14.9702 18.18 15.2473 18.18C15.5244 18.18 15.7496 18.4044 15.7496 18.6823L15.7505 20.2956C15.7505 20.3023 15.7505 20.3082 15.7505 20.3149C15.7505 20.3191 15.7505 20.3232 15.7505 20.3274C15.7781 21.4334 16.6865 22.3242 17.7991 22.3242H18.0001C19.1119 22.3242 20.0202 21.4342 20.0487 20.3291C20.0487 20.3241 20.0487 20.3199 20.0487 20.3149L20.0495 18.7501C20.0495 18.473 20.2748 18.2478 20.5519 18.2478C20.8223 18.2478 21.0433 18.4613 21.0542 18.7292C21.0542 18.7309 21.0542 18.7326 21.0542 18.7351C21.0542 18.7359 21.0542 18.7359 21.0542 18.7367V18.7376C21.0542 18.7392 21.0542 18.7409 21.0542 18.7434V18.7443C21.0542 18.7443 21.0542 18.7443 21.0542 18.7451C21.0542 18.7468 21.0542 18.7485 21.0542 18.751V19.8134H21.4761C25.2545 19.8134 28.3279 22.8868 28.3279 26.6651V29.2069C28.3279 30.1655 27.5484 30.9449 26.5898 30.9449H24.8601C23.2184 31.0755 22.4783 31.4506 21.8253 31.7821C21.3012 32.0475 20.8064 32.2987 20.0345 32.3004C20.0228 32.3004 20.011 32.3004 19.9993 32.3004ZM19.9893 31.2957C19.9851 31.2957 19.9809 31.2966 19.9767 31.2966C19.9809 31.2966 19.9851 31.2966 19.9893 31.2957ZM14.524 20.8172C11.2999 20.8172 8.67689 23.4402 8.67689 26.6643V29.206C8.67689 29.6104 9.00592 29.9394 9.41029 29.9394H10.9775C10.9901 29.9394 11.0035 29.9403 11.0161 29.9411C12.8797 30.0859 13.7922 30.5489 14.4587 30.8872C14.9442 31.1333 15.2649 31.2966 15.7999 31.2966H19.9968C20.011 31.2957 20.0253 31.2957 20.0395 31.2957C20.5669 31.2924 20.8876 31.1308 21.3707 30.8855C22.0337 30.5498 22.9404 30.0893 24.7823 29.9428C24.7932 29.9419 24.8041 29.9411 24.8149 29.9403C24.8342 29.9394 24.8526 29.9386 24.8719 29.9394H26.5898C26.9942 29.9394 27.3232 29.6104 27.3232 29.206V26.6643C27.3232 23.4402 24.7002 20.8172 21.4761 20.8172H21.0056C20.7486 22.2438 19.4987 23.3288 18.0001 23.3288H17.7991C16.3005 23.3288 15.0497 22.2438 14.7935 20.8172H14.524Z" fill="#F7F9FC"/>
<path d="M12.6418 12.662C12.4309 12.662 12.2366 12.528 12.1663 12.3212C12.1437 12.2551 11.6112 10.6728 11.4061 8.87108C11.1148 6.3067 11.6255 4.62894 12.9248 3.88466C13.3861 3.62094 14.0751 3.64019 14.5272 3.92987C14.8554 4.14001 15.1669 4.42801 15.4163 4.65908C15.5059 4.74196 15.5913 4.82066 15.6575 4.87759C15.7588 4.96382 15.8843 5.00652 16.0108 5.0015C16.1832 4.99312 16.637 4.94456 17.1276 4.68168C17.1427 4.67415 17.1577 4.66661 17.1728 4.65991C19.0523 3.88215 21.6845 4.51843 21.7959 4.54605C21.8235 4.55275 21.8503 4.56196 21.8763 4.57368C21.9616 4.61052 23.9634 5.50968 24.0162 7.64373C24.022 7.87563 24.0287 8.10252 24.0354 8.32522C24.0974 10.3998 24.1426 11.8984 23.22 12.4811C23.0601 12.5824 22.8575 12.5849 22.695 12.4878C22.5335 12.3915 22.4389 12.2124 22.4506 12.0248C22.4573 11.9118 22.5695 9.44038 20.1357 7.87731C19.5656 9.04605 17.7723 11.6096 12.7423 12.6511C12.7097 12.6586 12.6753 12.662 12.6418 12.662ZM13.6775 4.70429C13.5812 4.70429 13.4866 4.72187 13.4246 4.75703C11.6715 5.76084 12.4175 9.67898 12.9817 11.5702C15.7646 10.9139 17.347 9.75517 18.1942 8.87777C19.152 7.88568 19.4015 7.02922 19.404 7.02084C19.445 6.87517 19.5497 6.75461 19.6886 6.69433C19.8276 6.63405 19.9858 6.63824 20.1206 6.70856C21.8043 7.5868 22.6423 8.82084 23.0567 9.88577C23.0634 9.39852 23.0475 8.86438 23.0316 8.35536C23.0249 8.13182 23.0182 7.90243 23.0123 7.66884C22.9789 6.29749 21.749 5.62857 21.5104 5.51136C21.1747 5.43601 19.0323 4.99145 17.578 5.58001C16.9401 5.91573 16.354 5.99108 16.0593 6.00531C15.6759 6.02457 15.3017 5.89563 15.0053 5.6428C14.9232 5.57331 14.8311 5.48791 14.7332 5.3975C14.5122 5.19322 14.2376 4.9387 13.9847 4.77712C13.9119 4.72856 13.7922 4.70429 13.6775 4.70429Z" fill="#F7F9FC"/>
<path d="M22.2798 28.9951H21.9383C20.9411 28.9951 20.1299 28.1838 20.1299 27.1867V27.1046C20.1299 27.1013 20.1299 27.0988 20.1299 27.0954C20.1299 27.0804 20.1299 27.0653 20.1299 27.0502V27.0058C20.1299 26.9992 20.1299 26.9925 20.1299 26.9858C20.1332 26.6115 20.1533 26.2599 20.1877 25.987C20.2237 25.704 20.2973 25.1146 20.8181 25.1146H20.8373C20.8423 25.1146 20.8482 25.1146 20.8532 25.1146C20.9956 25.1188 21.1262 25.1648 21.3564 25.3632C21.8478 25.0627 22.3686 25.0627 22.86 25.3632C23.0903 25.1648 23.22 25.1188 23.3632 25.1146C23.3682 25.1146 23.3741 25.1146 23.3791 25.1146H23.3983C23.9183 25.1146 23.9928 25.704 24.0288 25.987C24.0631 26.2591 24.0832 26.6098 24.0865 26.9832C24.0865 26.9908 24.0874 26.9983 24.0874 27.0058V27.1867C24.0882 28.1838 23.277 28.9951 22.2798 28.9951ZM21.1345 27.0511V27.1867C21.1345 27.6296 21.4954 27.9904 21.9383 27.9904H22.2798C22.7227 27.9904 23.0836 27.6296 23.0836 27.1867V27.0954C23.0836 26.866 23.0769 26.6659 23.0668 26.4985C23.0141 26.5178 22.9588 26.5278 22.9019 26.5286C22.7679 26.5328 22.639 26.4792 22.5436 26.3855C22.2145 26.0632 22.0027 26.064 21.6737 26.3855C21.5783 26.4792 21.4493 26.532 21.3154 26.5286C21.2584 26.5278 21.2032 26.5178 21.1504 26.4985C21.1421 26.6551 21.1354 26.8401 21.1345 27.0511Z" fill="#F7F9FC"/>
</svg>
