<svg width="36" height="36" viewBox="0 0 36 36" fill="none" xmlns="http://www.w3.org/2000/svg">
<path d="M18 12.375C18 11.1815 18.4741 10.0369 19.318 9.19302C20.1619 8.34911 21.3065 7.875 22.5 7.875H31.5C31.7984 7.875 32.0845 7.99353 32.2955 8.20451C32.5065 8.41548 32.625 8.70163 32.625 9V27C32.625 27.2984 32.5065 27.5845 32.2955 27.7955C32.0845 28.0065 31.7984 28.125 31.5 28.125H22.5C21.3065 28.125 20.1619 28.5991 19.318 29.443C18.4741 30.2869 18 31.4315 18 32.625" stroke="#F7F9FC" stroke-linecap="round" stroke-linejoin="round"/>
<path d="M3.375 27C3.375 27.2984 3.49353 27.5845 3.7045 27.7955C3.91548 28.0065 4.20163 28.125 4.5 28.125H13.5C14.6935 28.125 15.8381 28.5991 16.682 29.443C17.5259 30.2869 18 31.4315 18 32.625V12.375C18 11.1815 17.5259 10.0369 16.682 9.19302C15.8381 8.34911 14.6935 7.875 13.5 7.875H4.5C4.20163 7.875 3.91548 7.99353 3.7045 8.20451C3.49353 8.41548 3.375 8.70163 3.375 9V27Z" stroke="#F7F9FC" stroke-linecap="round" stroke-linejoin="round"/>
</svg>
