<svg width="36" height="36" viewBox="0 0 36 36" fill="none" xmlns="http://www.w3.org/2000/svg">
<path d="M23.1928 21.1111C22.3983 21.1111 21.6515 20.8013 21.0906 20.2395L12.4087 11.5409C12.207 11.3392 12.2078 11.0118 12.4096 10.8109C12.6113 10.6091 12.9378 10.61 13.1396 10.8117L21.8215 19.5103C22.1873 19.877 22.6746 20.0788 23.1928 20.0788C23.711 20.0788 24.1983 19.877 24.5642 19.5103L33.2452 10.8142C33.447 10.6125 33.7735 10.6125 33.9752 10.8134C34.177 11.0152 34.177 11.3417 33.9761 11.5434L25.2942 20.2395C24.7333 20.8013 23.9873 21.1111 23.1928 21.1111Z" fill="#F7F9FC"/>
<path d="M33.7779 25.5207H12.625C12.3395 25.5207 12.1084 25.2896 12.1084 25.0041V10.9951C12.1084 10.8578 12.1628 10.7272 12.2599 10.6301C12.357 10.5329 12.4885 10.4785 12.625 10.4785L33.7771 10.4802C34.0625 10.4802 34.2936 10.7113 34.2936 10.9967V25.0041C34.2936 25.2896 34.0625 25.5207 33.7779 25.5207ZM13.1415 24.4884H33.2613V11.5133L13.1415 11.5116V24.4884Z" fill="#F7F9FC"/>
<path d="M33.4563 23.8479C33.3358 23.8479 33.2152 23.806 33.1172 23.7206L27.8905 19.1704C27.5255 18.8523 27.117 18.5718 26.6758 18.3365C26.4238 18.2026 26.3292 17.8895 26.4631 17.6383C26.5971 17.3872 26.9102 17.2917 27.1613 17.4257C27.672 17.6978 28.1451 18.0226 28.5687 18.3918L33.7954 22.942C34.0105 23.1296 34.0332 23.4552 33.8456 23.6704C33.7443 23.7885 33.6012 23.8479 33.4563 23.8479ZM13.0519 23.7592C12.907 23.7592 12.7639 23.6989 12.6617 23.5808C12.475 23.3657 12.4985 23.0392 12.7136 22.8525L17.87 18.3818C18.2836 18.0226 18.7432 17.7061 19.2355 17.4407C19.4866 17.3051 19.7998 17.3989 19.9345 17.65C20.0702 17.9012 19.9756 18.2143 19.7252 18.3491C19.2991 18.5785 18.9023 18.8514 18.5465 19.1612L13.3901 23.6319C13.2921 23.7181 13.1716 23.7592 13.0519 23.7592Z" fill="#F7F9FC"/>
<path d="M8.99055 25.4428H2.22171C1.92199 25.4428 1.6792 25.2 1.6792 24.9011C1.6792 24.6022 1.92199 24.3594 2.22171 24.3594H8.99055C9.29027 24.3594 9.53306 24.6022 9.53306 24.9011C9.53306 25.2 9.29027 25.4428 8.99055 25.4428ZM9.00729 21.9893H2.23929C1.93957 21.9893 1.69678 21.7465 1.69678 21.4476C1.69678 21.1487 1.93957 20.9059 2.23929 20.9059H9.00813C9.30785 20.9059 9.55064 21.1487 9.55064 21.4476C9.55064 21.7465 9.30701 21.9893 9.00729 21.9893ZM9.00729 18.4939H2.23929C1.93957 18.4939 1.69678 18.2512 1.69678 17.9514C1.69678 17.6517 1.93957 17.4089 2.23929 17.4089H9.00813C9.30785 17.4089 9.55064 17.6517 9.55064 17.9514C9.5498 18.2512 9.30701 18.4939 9.00729 18.4939ZM8.99473 15.0405H2.22673C1.92701 15.0405 1.68422 14.7977 1.68422 14.4979C1.68422 14.1982 1.92701 13.9554 2.22673 13.9554H8.99473C9.29446 13.9554 9.53725 14.1982 9.53725 14.4979C9.53725 14.7977 9.29446 15.0405 8.99473 15.0405ZM8.99473 11.5451H2.22673C1.92701 11.5451 1.68422 11.3023 1.68422 11.0026C1.68422 10.7029 1.92701 10.4601 2.22673 10.4601H8.99473C9.29446 10.4601 9.53725 10.7029 9.53725 11.0026C9.53725 11.3023 9.29446 11.5451 8.99473 11.5451Z" fill="#F7F9FC"/>
</svg>
