<svg width="36" height="36" viewBox="0 0 36 36" fill="none" xmlns="http://www.w3.org/2000/svg">
<path d="M29.2889 31.9119C29.2085 31.9119 29.129 31.8927 29.0553 31.8541L25.6655 30.0717L22.2756 31.8541C22.1065 31.9429 21.9014 31.9286 21.7465 31.8156C21.5916 31.7034 21.5146 31.5126 21.5464 31.3242L22.1936 27.5492L19.4509 24.876C19.3144 24.7429 19.265 24.5428 19.3236 24.3611C19.383 24.1794 19.5396 24.0463 19.7288 24.0195L23.5189 23.4687L25.2142 20.0344C25.2988 19.8628 25.4737 19.7548 25.6646 19.7548C25.8555 19.7548 26.0305 19.8636 26.115 20.0344L27.8104 23.4687L31.6004 24.0195C31.7896 24.0472 31.947 24.1794 32.0056 24.3611C32.0651 24.5428 32.0157 24.7429 31.8784 24.876L29.1357 27.5492L29.7829 31.3242C29.8155 31.5126 29.7376 31.7034 29.5828 31.8156C29.4965 31.8793 29.3927 31.9119 29.2889 31.9119ZM20.8808 24.8668L23.0835 27.0142C23.2016 27.1298 23.256 27.2955 23.2283 27.4588L22.7084 30.4912L25.431 29.0595C25.5776 28.9825 25.7525 28.9825 25.8982 29.0595L28.6208 30.4912L28.1009 27.4588C28.0733 27.2955 28.1269 27.1298 28.2457 27.0142L30.4484 24.8668L27.4043 24.4247C27.2403 24.4013 27.0996 24.2983 27.0259 24.1501L25.6646 21.3915L24.3033 24.1501C24.2305 24.2983 24.089 24.4013 23.9249 24.4247L20.8808 24.8668Z" fill="#F7F9FC"/>
<path d="M24.7914 14.5917C24.608 14.5917 24.4389 14.4912 24.351 14.3305L23.3966 12.5858L21.6518 11.6313C21.4911 11.5434 21.3906 11.3743 21.3906 11.191C21.3906 11.0076 21.4911 10.8385 21.6518 10.7506L23.3966 9.79618L24.351 8.05143C24.4389 7.89069 24.608 7.79022 24.7914 7.79022C24.9747 7.79022 25.1438 7.89069 25.2317 8.05143L26.1862 9.79618L27.9309 10.7506C28.0916 10.8385 28.1921 11.0076 28.1921 11.191C28.1921 11.3743 28.0916 11.5434 27.9309 11.6313L26.1862 12.5858L25.2317 14.3305C25.1438 14.4912 24.9756 14.5917 24.7914 14.5917ZM22.9395 11.1901L24.0077 11.7745C24.0923 11.8205 24.1609 11.89 24.2078 11.9746L24.7922 13.0429L25.3766 11.9746C25.4226 11.89 25.4921 11.8214 25.5758 11.7753L26.6441 11.191L25.5758 10.6066C25.4913 10.5605 25.4226 10.4911 25.3766 10.4073L24.7922 9.33906L24.2078 10.4073C24.1618 10.4919 24.0923 10.5605 24.0077 10.6074L22.9395 11.1901Z" fill="#F7F9FC"/>
<path d="M11.4488 27.9184C11.2655 27.9184 11.0964 27.818 11.0085 27.6572L10.054 25.9125L8.30931 24.9581C8.14856 24.8702 8.0481 24.701 8.0481 24.5177C8.0481 24.3343 8.14856 24.1652 8.30931 24.0773L10.054 23.1229L11.0085 21.3782C11.0964 21.2174 11.2655 21.1169 11.4488 21.1169C11.6322 21.1169 11.8013 21.2174 11.8892 21.3782L12.8436 23.1229L14.5884 24.0773C14.7491 24.1652 14.8496 24.3343 14.8496 24.5177C14.8496 24.701 14.7491 24.8702 14.5884 24.9581L12.8436 25.9125L11.8892 27.6572C11.8013 27.818 11.6322 27.9184 11.4488 27.9184ZM9.5961 24.5169L10.6644 25.1012C10.7489 25.1473 10.8176 25.2168 10.8636 25.3005L11.448 26.3688L12.0324 25.3005C12.0784 25.2159 12.1479 25.1473 12.2325 25.1004L13.3007 24.516L12.2325 23.9316C12.1479 23.8856 12.0793 23.8161 12.0324 23.7315L11.448 22.6633L10.8636 23.7315C10.8176 23.8161 10.7481 23.8848 10.6644 23.9316L9.5961 24.5169Z" fill="#F7F9FC"/>
<path d="M21.8084 22.1199C21.6795 22.1199 21.5514 22.0705 21.4534 21.9725L11.1934 11.7125C10.9975 11.5166 10.9975 11.1985 11.1934 11.0018C11.3893 10.8059 11.7075 10.8059 11.9034 11.0018L22.1634 21.2618C22.3593 21.4577 22.3593 21.7758 22.1634 21.9725C22.0654 22.0705 21.9373 22.1199 21.8084 22.1199Z" fill="#F7F9FC"/>
<path d="M9.7937 10.1051C9.66477 10.1051 9.53667 10.0557 9.43872 9.95777L4.42635 4.9454C4.23044 4.74949 4.23044 4.43135 4.42635 4.23461C4.62226 4.0387 4.9404 4.0387 5.1363 4.23461L10.1487 9.24698C10.3446 9.44289 10.3446 9.76103 10.1487 9.95777C10.0516 10.0557 9.92263 10.1051 9.7937 10.1051Z" fill="#F7F9FC"/>
<path d="M22.8691 16.5165C22.7402 16.5165 22.6121 16.4671 22.5142 16.3691L20.7602 14.6152C20.5643 14.4193 20.5643 14.1011 20.7602 13.9044C20.9561 13.7085 21.2743 13.7085 21.4702 13.9044L23.2241 15.6583C23.42 15.8542 23.42 16.1724 23.2241 16.3691C23.127 16.4671 22.9981 16.5165 22.8691 16.5165Z" fill="#F7F9FC"/>
<path d="M19.3303 12.9768C19.2013 12.9768 19.0732 12.9274 18.9753 12.8294L11.6715 5.5256C11.4756 5.32969 11.4756 5.01155 11.6715 4.81481C11.8674 4.6189 12.1855 4.6189 12.3814 4.81481L19.6852 12.1186C19.8811 12.3145 19.8811 12.6327 19.6852 12.8294C19.5873 12.9282 19.4592 12.9768 19.3303 12.9768Z" fill="#F7F9FC"/>
<path d="M16.205 23.1807C16.0761 23.1807 15.948 23.1313 15.85 23.0333L10.5438 17.7271C10.3479 17.5312 10.3479 17.213 10.5438 17.0163C10.7397 16.8204 11.0578 16.8204 11.2537 17.0163L16.56 22.3225C16.7559 22.5184 16.7559 22.8366 16.56 23.0333C16.462 23.1313 16.3339 23.1807 16.205 23.1807Z" fill="#F7F9FC"/>
<path d="M9.34323 16.3189C9.2143 16.3189 9.08621 16.2695 8.98826 16.1715L4.11653 11.2998C3.92063 11.1039 3.92063 10.7858 4.11653 10.589C4.31244 10.3931 4.63058 10.3931 4.82649 10.589L9.69821 15.4608C9.89412 15.6567 9.89412 15.9748 9.69821 16.1715C9.60026 16.2695 9.47133 16.3189 9.34323 16.3189Z" fill="#F7F9FC"/>
<path d="M17.5086 31.1484C17.3797 31.1484 17.2516 31.099 17.1536 31.001L13.9237 27.7711C13.7278 27.5752 13.7278 27.257 13.9237 27.0603C14.1196 26.8644 14.4377 26.8644 14.6336 27.0603L17.8636 30.2902C18.0595 30.4862 18.0595 30.8043 17.8636 31.001C17.7656 31.0998 17.6375 31.1484 17.5086 31.1484Z" fill="#F7F9FC"/>
<path d="M8.80162 22.4422C8.67269 22.4422 8.54459 22.3928 8.44664 22.2949L4.3619 18.2101C4.16599 18.0142 4.16599 17.6961 4.3619 17.4993C4.5578 17.3034 4.87594 17.3034 5.07185 17.4993L9.15659 21.5841C9.3525 21.78 9.3525 22.0981 9.15659 22.2949C9.05948 22.3928 8.93055 22.4422 8.80162 22.4422Z" fill="#F7F9FC"/>
<path d="M30.6828 17.974C30.5514 17.974 30.4208 17.923 30.322 17.8208L27.1431 14.539C26.9497 14.3397 26.9547 14.0216 27.154 13.829C27.3532 13.6356 27.6714 13.6415 27.8639 13.8399L31.0428 17.1218C31.2362 17.321 31.2312 17.6392 31.0319 17.8317C30.9348 17.9272 30.8092 17.974 30.6828 17.974Z" fill="#F7F9FC"/>
<path d="M22.114 9.12977C21.9826 9.12977 21.852 9.0787 21.7532 8.97656L19.8544 7.01582C19.661 6.81656 19.666 6.49842 19.8653 6.30586C20.0645 6.11247 20.3827 6.11749 20.5752 6.31675L22.4749 8.27749C22.6682 8.47675 22.6632 8.79489 22.464 8.98745C22.366 9.08205 22.2404 9.12977 22.114 9.12977Z" fill="#F7F9FC"/>
<path d="M18.8967 5.87973C18.7677 5.87973 18.6397 5.83033 18.5417 5.73238L17.82 5.01071C17.6241 4.8148 17.6241 4.49666 17.82 4.29991C18.0159 4.10401 18.3341 4.10401 18.5308 4.29991L19.2525 5.02159C19.4484 5.2175 19.4484 5.53564 19.2525 5.73238C19.1537 5.83033 19.0256 5.87973 18.8967 5.87973Z" fill="#F7F9FC"/>
</svg>
