<svg width="36" height="36" viewBox="0 0 36 36" fill="none" xmlns="http://www.w3.org/2000/svg">
<path d="M18 23.5005C14.9668 23.5005 12.4995 21.0332 12.4995 18C12.4995 14.9668 14.9668 12.4995 18 12.4995C21.0332 12.4995 23.5004 14.9668 23.5004 18C23.5004 21.0332 21.0332 23.5005 18 23.5005ZM18 13.5101C15.5243 13.5101 13.51 15.5244 13.51 18C13.51 20.4756 15.5243 22.49 18 22.49C20.4756 22.49 22.4899 20.4756 22.4899 18C22.4899 15.5244 20.4756 13.5101 18 13.5101Z" fill="#F7F9FC"/>
<path d="M18.0016 25.3917C15.2505 25.3917 12.5162 24.722 10.0942 23.4553C7.74999 22.2287 5.69213 20.4447 4.14329 18.2964C4.01604 18.1197 4.01604 17.8811 4.14329 17.7053C5.69381 15.5562 7.7525 13.7721 10.095 12.5464C12.5162 11.2797 15.2505 10.61 18.0016 10.61C20.751 10.61 23.4845 11.2797 25.9057 12.5464C28.2482 13.7721 30.3061 15.5562 31.8574 17.7053C31.9847 17.882 31.9847 18.1197 31.8574 18.2964C30.3078 20.4455 28.2507 22.2296 25.9082 23.4553C23.4862 24.722 20.7527 25.3917 18.0016 25.3917ZM5.18143 18C8.20878 22.0019 12.9733 24.3804 18.0016 24.3804C23.0274 24.3804 27.7911 22.0019 30.8185 18C27.7886 13.9981 23.0249 11.6196 18.0016 11.6196C12.9767 11.6196 8.21213 13.9981 5.18143 18Z" fill="#F7F9FC"/>
</svg>
