<svg width="36" height="36" viewBox="0 0 36 36" fill="none" xmlns="http://www.w3.org/2000/svg">
<path d="M23.9618 26.7664H12.4518C12.1521 26.7664 11.9102 26.5236 11.9102 26.2239C11.9102 25.9242 12.1529 25.6814 12.4518 25.6814H23.9626C24.2623 25.6814 24.5043 25.9242 24.5043 26.2239C24.5043 26.5236 24.2615 26.7664 23.9618 26.7664Z" fill="#F7F9FC"/>
<path d="M23.9618 22.4297H12.4518C12.1521 22.4297 11.9102 22.1869 11.9102 21.8872C11.9102 21.5875 12.1529 21.3447 12.4518 21.3447H23.9626C24.2623 21.3447 24.5043 21.5875 24.5043 21.8872C24.5043 22.1869 24.2615 22.4297 23.9618 22.4297Z" fill="#F7F9FC"/>
<path d="M23.9618 18.0929H12.4518C12.1521 18.0929 11.9102 17.8501 11.9102 17.5504C11.9102 17.2507 12.1529 17.0079 12.4518 17.0079H23.9626C24.2623 17.0079 24.5043 17.2507 24.5043 17.5504C24.5043 17.8501 24.2615 18.0929 23.9618 18.0929Z" fill="#F7F9FC"/>
<path d="M23.9618 13.7562H12.4518C12.1521 13.7562 11.9102 13.5134 11.9102 13.2137C11.9102 12.914 12.1529 12.6712 12.4518 12.6712H23.9626C24.2623 12.6712 24.5043 12.914 24.5043 13.2137C24.5043 13.5134 24.2615 13.7562 23.9618 13.7562Z" fill="#F7F9FC"/>
<path d="M26.9724 32.0115H9.02764C8.72792 32.0115 8.48596 31.7687 8.48596 31.469V4.53098C8.48596 4.23126 8.72875 3.98846 9.02764 3.98846H22.0044C22.1484 3.98846 22.2857 4.04539 22.3878 4.14753L27.3558 9.11553C27.4571 9.21684 27.5149 9.35498 27.5149 9.49898V31.469C27.5149 31.7687 27.2721 32.0115 26.9724 32.0115ZM9.56931 30.9273H26.4307V9.72419L21.78 5.07349H9.56931V30.9273Z" fill="#F7F9FC"/>
<path d="M26.0858 9.86315H22.0379C21.7382 9.86315 21.4962 9.62036 21.4962 9.32064V4.68417C21.4962 4.38445 21.739 4.14166 22.0379 4.14166C22.3368 4.14166 22.5796 4.38445 22.5796 4.68417V8.77896H26.0858C26.3855 8.77896 26.6275 9.02176 26.6275 9.32148C26.6275 9.6212 26.3847 9.86315 26.0858 9.86315Z" fill="#F7F9FC"/>
</svg>
