<svg width="36" height="36" viewBox="0 0 36 36" fill="none" xmlns="http://www.w3.org/2000/svg">
<path d="M31.485 29.1583H4.51516C4.22884 29.1583 3.99609 28.9256 3.99609 28.6392V10.8787C3.99609 10.5924 4.22884 10.3596 4.51516 10.3596H31.485C31.7713 10.3596 32.0041 10.5924 32.0041 10.8787V28.6392C32.0041 28.9264 31.7713 29.1583 31.485 29.1583ZM5.03423 28.1202H30.966V11.3978H5.03423V28.1202Z" fill="#F7F9FC"/>
<path d="M17.9999 26.9849C14.0156 26.9849 10.7739 23.7433 10.7739 19.759C10.7739 15.7747 14.0156 12.533 17.9999 12.533C21.9842 12.533 25.2258 15.7747 25.2258 19.759C25.2258 23.7433 21.9842 26.9849 17.9999 26.9849ZM17.9999 13.5712C14.5883 13.5712 11.8121 16.3473 11.8121 19.759C11.8121 23.1706 14.5874 25.9468 17.9999 25.9468C21.4123 25.9468 24.1877 23.1714 24.1877 19.759C24.1877 16.3473 21.4115 13.5712 17.9999 13.5712Z" fill="#F7F9FC"/>
<path d="M18 24.84C15.1987 24.84 12.9189 22.5611 12.9189 19.759C12.9189 16.9568 15.1978 14.6779 18 14.6779C20.8021 14.6779 23.081 16.9568 23.081 19.759C23.081 22.5611 20.8013 24.84 18 24.84ZM18 15.7161C15.7705 15.7161 13.9571 17.5295 13.9571 19.759C13.9571 21.9885 15.7705 23.8019 18 23.8019C20.2295 23.8019 22.0429 21.9885 22.0429 19.759C22.0429 17.5303 20.2295 15.7161 18 15.7161Z" fill="#F7F9FC"/>
<path d="M28.0107 15.6022C26.9676 15.6022 26.1187 14.7533 26.1187 13.7101C26.1187 12.667 26.9676 11.8181 28.0107 11.8181C29.0539 11.8181 29.9028 12.667 29.9028 13.7101C29.9028 14.7533 29.0539 15.6022 28.0107 15.6022ZM28.0107 12.8562C27.5402 12.8562 27.1568 13.2388 27.1568 13.7101C27.1568 14.1815 27.5402 14.5641 28.0107 14.5641C28.4813 14.5641 28.8647 14.1815 28.8647 13.7101C28.8647 13.2388 28.4813 12.8562 28.0107 12.8562Z" fill="#F7F9FC"/>
<path d="M10.1498 11.3978H7.33255C7.04622 11.3978 6.81348 11.165 6.81348 10.8787V8.64755C6.81348 8.36122 7.04622 8.12848 7.33255 8.12848H10.1498C10.4361 8.12848 10.6688 8.36122 10.6688 8.64755V10.8787C10.6688 11.165 10.4361 11.3978 10.1498 11.3978ZM7.85162 10.3596H9.63069V9.16662H7.85162V10.3596Z" fill="#F7F9FC"/>
<path d="M23.1197 11.3978H12.8806C12.709 11.3978 12.5491 11.3132 12.4519 11.1717C12.3548 11.0302 12.3347 10.8502 12.3967 10.6903L13.7697 7.17237C13.8476 6.97312 14.0393 6.84167 14.2536 6.84167H21.7466C21.9601 6.84167 22.1527 6.97312 22.2305 7.17237L23.6036 10.6903C23.6655 10.8502 23.6454 11.0302 23.5483 11.1717C23.4512 11.3132 23.2913 11.3978 23.1197 11.3978ZM13.6408 10.3596H22.3595L21.3917 7.87981H14.6078L13.6408 10.3596Z" fill="#F7F9FC"/>
</svg>
