<svg width="291" height="33" viewBox="0 0 291 33" fill="none" xmlns="http://www.w3.org/2000/svg">
<path d="M0.8 0.799998H12.032V26H8.864V1.556H4.004V26H0.8V0.799998ZM19.7487 8.612C19.4367 8.612 19.1487 8.684 18.8847 8.828C18.6207 8.972 18.3807 9.248 18.1647 9.656C17.9727 10.04 17.8167 10.568 17.6967 11.24C17.6007 11.912 17.5527 12.788 17.5527 13.868V15.02H22.7727C22.8447 14.9 22.9287 14.768 23.0247 14.624C23.1447 14.48 23.1927 14.216 23.1687 13.832C23.1447 12.752 23.0007 11.876 22.7367 11.204C22.4967 10.532 22.2087 10.004 21.8727 9.62C21.5367 9.236 21.1767 8.972 20.7927 8.828C20.4087 8.684 20.0607 8.612 19.7487 8.612ZM20.5047 25.604C20.8647 25.604 21.2247 25.532 21.5847 25.388C21.9687 25.244 22.3407 25.004 22.7007 24.668C23.0607 24.308 23.3967 23.852 23.7087 23.3C24.0447 22.748 24.3207 22.064 24.5367 21.248L25.0407 21.716C24.6087 23.396 23.9607 24.596 23.0967 25.316C22.2567 26.012 21.3927 26.36 20.5047 26.36C19.7367 26.36 18.9687 26.18 18.2007 25.82C17.4327 25.46 16.7487 24.908 16.1487 24.164C15.5487 23.396 15.0567 22.424 14.6727 21.248C14.3127 20.072 14.1327 18.68 14.1327 17.072C14.1327 15.776 14.2767 14.564 14.5647 13.436C14.8767 12.308 15.2847 11.324 15.7887 10.484C16.2927 9.644 16.8807 8.984 17.5527 8.504C18.2487 8 18.9807 7.748 19.7487 7.748C20.5167 7.748 21.2127 7.952 21.8367 8.36C22.4847 8.768 23.0367 9.332 23.4927 10.052C23.9487 10.772 24.3087 11.624 24.5727 12.608C24.8607 13.568 25.0167 14.624 25.0407 15.776H17.5527C17.5287 16.52 17.5167 17.228 17.5167 17.9C17.5167 18.572 17.5287 19.364 17.5527 20.276C17.5527 21.356 17.6487 22.244 17.8407 22.94C18.0567 23.612 18.3087 24.152 18.5967 24.56C18.8847 24.944 19.1967 25.22 19.5327 25.388C19.8687 25.532 20.1927 25.604 20.5047 25.604ZM34.7725 20.276C34.8205 19.652 34.8445 19.088 34.8445 18.584C34.8685 18.056 34.8805 17.552 34.8805 17.072C34.8805 16.568 34.8685 16.064 34.8445 15.56C34.8445 15.032 34.8205 14.456 34.7725 13.832C34.7725 12.776 34.6525 11.912 34.4125 11.24C34.1725 10.568 33.8485 10.028 33.4405 9.62C33.0565 9.212 32.6245 8.936 32.1445 8.792C31.6645 8.624 31.1725 8.54 30.6685 8.54V25.46C31.1725 25.46 31.6525 25.388 32.1085 25.244C32.5885 25.076 33.0085 24.812 33.3685 24.452C33.7525 24.068 34.0645 23.54 34.3045 22.868C34.5685 22.196 34.7245 21.332 34.7725 20.276ZM37.8325 17.072C37.8325 18.344 37.6765 19.532 37.3645 20.636C37.0765 21.74 36.6325 22.7 36.0325 23.516C35.4565 24.332 34.7125 24.98 33.8005 25.46C32.9125 25.94 31.8685 26.18 30.6685 26.18V32.66H27.5005V7.784H30.6685C31.8685 7.784 32.9125 8.036 33.8005 8.54C34.7125 9.02 35.4565 9.68 36.0325 10.52C36.6325 11.36 37.0765 12.344 37.3645 13.472C37.6765 14.576 37.8325 15.776 37.8325 17.072ZM45.3241 8.612C45.0121 8.612 44.7241 8.684 44.4601 8.828C44.1961 8.972 43.9561 9.248 43.7401 9.656C43.5481 10.04 43.3921 10.568 43.2721 11.24C43.1761 11.912 43.1281 12.788 43.1281 13.868V15.02H48.3481C48.4201 14.9 48.5041 14.768 48.6001 14.624C48.7201 14.48 48.7681 14.216 48.7441 13.832C48.7201 12.752 48.5761 11.876 48.3121 11.204C48.0721 10.532 47.7841 10.004 47.4481 9.62C47.1121 9.236 46.7521 8.972 46.3681 8.828C45.9841 8.684 45.6361 8.612 45.3241 8.612ZM46.0801 25.604C46.4401 25.604 46.8001 25.532 47.1601 25.388C47.5441 25.244 47.9161 25.004 48.2761 24.668C48.6361 24.308 48.9721 23.852 49.2841 23.3C49.6201 22.748 49.8961 22.064 50.1121 21.248L50.6161 21.716C50.1841 23.396 49.5361 24.596 48.6721 25.316C47.8321 26.012 46.9681 26.36 46.0801 26.36C45.3121 26.36 44.5441 26.18 43.7761 25.82C43.0081 25.46 42.3241 24.908 41.7241 24.164C41.1241 23.396 40.6321 22.424 40.2481 21.248C39.8881 20.072 39.7081 18.68 39.7081 17.072C39.7081 15.776 39.8521 14.564 40.1401 13.436C40.4521 12.308 40.8601 11.324 41.3641 10.484C41.8681 9.644 42.4561 8.984 43.1281 8.504C43.8241 8 44.5561 7.748 45.3241 7.748C46.0921 7.748 46.7881 7.952 47.4121 8.36C48.0601 8.768 48.6121 9.332 49.0681 10.052C49.5241 10.772 49.8841 11.624 50.1481 12.608C50.4361 13.568 50.5921 14.624 50.6161 15.776H43.1281C43.1041 16.52 43.0921 17.228 43.0921 17.9C43.0921 18.572 43.1041 19.364 43.1281 20.276C43.1281 21.356 43.2241 22.244 43.4161 22.94C43.6321 23.612 43.8841 24.152 44.1721 24.56C44.4601 24.944 44.7721 25.22 45.1081 25.388C45.4441 25.532 45.7681 25.604 46.0801 25.604ZM58.4169 18.98V8.756H58.3449C58.0329 8.756 57.6969 8.792 57.3369 8.864C57.0009 8.912 56.6889 9.044 56.4009 9.26C56.1129 9.452 55.8729 9.752 55.6809 10.16C55.4889 10.544 55.3929 11.084 55.3929 11.78C55.3449 12.596 55.3209 13.292 55.3209 13.868C55.3209 14.444 55.3449 15.14 55.3929 15.956C55.4409 16.652 55.5609 17.204 55.7529 17.612C55.9449 17.996 56.1729 18.296 56.4369 18.512C56.7249 18.704 57.0369 18.836 57.3729 18.908C57.7089 18.956 58.0329 18.98 58.3449 18.98H58.4169ZM61.6209 8V26H58.4169V19.736H58.3449C58.2249 19.736 58.0929 19.736 57.9489 19.736C57.8289 19.736 57.7089 19.724 57.5889 19.7L54.6009 25.964H51.0369L56.8329 19.592C55.3689 19.304 54.2529 18.644 53.4849 17.612C52.7169 16.58 52.3329 15.332 52.3329 13.868C52.3329 13.028 52.4649 12.248 52.7289 11.528C52.9929 10.808 53.3769 10.196 53.8809 9.692C54.3849 9.164 55.0089 8.756 55.7529 8.468C56.5209 8.156 57.3849 8 58.3449 8H61.6209ZM73.2925 25.46C73.8445 25.46 74.4205 25.4 75.0205 25.28C75.6445 25.136 76.2565 24.908 76.8565 24.596C77.4565 24.284 78.0205 23.864 78.5485 23.336C79.0765 22.808 79.5205 22.136 79.8805 21.32L80.5645 21.572C80.2285 22.388 79.7845 23.096 79.2325 23.696C78.7045 24.272 78.1165 24.752 77.4685 25.136C76.8205 25.496 76.1365 25.76 75.4165 25.928C74.7205 26.096 74.0245 26.18 73.3285 26.18C72.1285 26.18 70.9885 25.94 69.9085 25.46C68.8525 24.98 67.9285 24.332 67.1365 23.516C66.3445 22.676 65.7205 21.704 65.2645 20.6C64.8085 19.472 64.5805 18.272 64.5805 17C64.5805 15.728 64.8085 14.528 65.2645 13.4C65.7205 12.272 66.3445 11.3 67.1365 10.484C67.9285 9.644 68.8525 8.984 69.9085 8.504C70.9885 8.024 72.1285 7.784 73.3285 7.784C74.5285 7.784 75.5725 7.916 76.4605 8.18C77.3485 8.444 78.1165 8.78 78.7645 9.188C79.4125 9.596 79.9645 10.04 80.4205 10.52C80.8765 11 81.2725 11.444 81.6085 11.852L78.8005 15.884L78.4765 15.704C78.5965 15.464 78.6925 15.188 78.7645 14.876C78.8605 14.54 78.9085 14.18 78.9085 13.796C78.9085 12.74 78.7045 11.876 78.2965 11.204C77.9125 10.532 77.4325 10.004 76.8565 9.62C76.2805 9.236 75.6685 8.972 75.0205 8.828C74.3725 8.684 73.7965 8.612 73.2925 8.612C72.8125 8.612 72.2365 8.684 71.5645 8.828C70.9165 8.972 70.2925 9.236 69.6925 9.62C69.1165 10.004 68.6125 10.532 68.1805 11.204C67.7725 11.876 67.5685 12.74 67.5685 13.796C67.5445 14.42 67.5205 14.984 67.4965 15.488C67.4965 15.992 67.4965 16.496 67.4965 17C67.4965 17.48 67.4965 17.972 67.4965 18.476C67.5205 18.98 67.5445 19.544 67.5685 20.168C67.6405 21.224 67.8805 22.1 68.2885 22.796C68.7205 23.468 69.2245 24.008 69.8005 24.416C70.3765 24.8 70.9765 25.076 71.6005 25.244C72.2485 25.388 72.8125 25.46 73.2925 25.46ZM93.8895 8.036V26H90.6855V8.792H88.9935L88.3815 20.06C88.3095 21.284 88.1535 22.292 87.9135 23.084C87.6735 23.852 87.3855 24.464 87.0495 24.92C86.7135 25.352 86.3415 25.664 85.9335 25.856C85.5255 26.024 85.1175 26.108 84.7095 26.108C84.3975 26.108 84.0975 26.072 83.8095 26L82.7295 21.248L82.9815 21.14C83.3175 21.548 83.6655 21.872 84.0255 22.112C84.3855 22.328 84.8055 22.436 85.2855 22.436C85.7415 22.436 86.2095 22.208 86.6895 21.752C87.1695 21.296 87.4575 20.54 87.5535 19.484C87.6975 17.756 87.8175 16.076 87.9135 14.444C88.0335 12.812 88.1295 11.288 88.2015 9.872L86.8695 8.252V8.036H93.8895ZM100.818 25.28C101.226 25.28 101.55 25.208 101.79 25.064C102.054 24.92 102.246 24.728 102.366 24.488C102.486 24.248 102.57 23.984 102.618 23.696C102.666 23.384 102.702 23.072 102.726 22.76V19.808V18.836V15.02C102.174 15.02 101.658 15.08 101.178 15.2C100.698 15.32 100.278 15.536 99.9184 15.848C99.5824 16.16 99.3184 16.568 99.1264 17.072C98.9344 17.552 98.8384 18.176 98.8384 18.944C98.8384 19.16 98.8384 19.436 98.8384 19.772C98.8384 20.084 98.8384 20.42 98.8384 20.78C98.8384 21.116 98.8384 21.452 98.8384 21.788C98.8384 22.124 98.8384 22.424 98.8384 22.688C98.8384 23.6 99.0544 24.26 99.4864 24.668C99.9424 25.076 100.386 25.28 100.818 25.28ZM106.002 26H102.726V25.1C102.51 25.364 102.27 25.604 102.006 25.82C101.766 26.012 101.31 26.108 100.638 26.108C100.014 26.108 99.4144 25.988 98.8384 25.748C98.2624 25.484 97.7584 25.124 97.3264 24.668C96.8944 24.188 96.5464 23.612 96.2824 22.94C96.0184 22.268 95.8864 21.524 95.8864 20.708C95.8864 19.124 96.1384 17.9 96.6424 17.036C97.1704 16.172 97.7944 15.536 98.5144 15.128C99.2344 14.72 99.9784 14.48 100.746 14.408C101.538 14.312 102.21 14.264 102.762 14.264V11.06C102.762 10.7 102.75 10.364 102.726 10.052C102.726 9.74 102.678 9.476 102.582 9.26C102.51 9.044 102.378 8.876 102.186 8.756C102.018 8.612 101.766 8.54 101.43 8.54C100.926 8.54 100.482 8.648 100.098 8.864C99.7384 9.08 99.4744 9.404 99.3064 9.836C99.1624 10.244 99.1384 10.76 99.2344 11.384C99.3544 12.008 99.6304 12.728 100.062 13.544H99.6304L97.0384 11.492C97.2304 11.036 97.3864 10.592 97.5064 10.16C97.6504 9.704 97.8664 9.308 98.1544 8.972C98.4424 8.612 98.8384 8.324 99.3424 8.108C99.8704 7.892 100.59 7.784 101.502 7.784C102.918 7.784 104.01 8.12 104.778 8.792C105.57 9.464 105.978 10.472 106.002 11.816V26ZM114.89 22.04C114.914 21.632 114.926 21.26 114.926 20.924C114.95 20.564 114.962 20.228 114.962 19.916C114.962 19.58 114.95 19.244 114.926 18.908C114.926 18.572 114.914 18.2 114.89 17.792C114.89 17.072 114.782 16.52 114.566 16.136C114.374 15.752 114.122 15.488 113.81 15.344C113.522 15.176 113.186 15.092 112.802 15.092C112.442 15.068 112.094 15.056 111.758 15.056H111.686V25.208H111.758C112.094 25.208 112.43 25.184 112.766 25.136C113.126 25.064 113.45 24.92 113.738 24.704C114.05 24.488 114.302 24.176 114.494 23.768C114.71 23.336 114.842 22.76 114.89 22.04ZM113.918 10.376C113.942 9.752 113.726 9.332 113.27 9.116C112.814 8.9 112.286 8.792 111.686 8.792V14.264C112.286 14.264 112.802 14.168 113.234 13.976C113.666 13.76 113.894 13.28 113.918 12.536V10.376ZM114.422 14.696C115.574 15.104 116.45 15.764 117.05 16.676C117.65 17.564 117.95 18.656 117.95 19.952C117.95 20.696 117.806 21.428 117.518 22.148C117.254 22.868 116.858 23.516 116.33 24.092C115.802 24.668 115.154 25.136 114.386 25.496C113.618 25.832 112.73 26 111.722 26H108.41V8H111.686C112.622 8.024 113.414 8.132 114.062 8.324C114.734 8.516 115.274 8.78 115.682 9.116C116.114 9.428 116.426 9.8 116.618 10.232C116.81 10.64 116.906 11.072 116.906 11.528C116.906 12.368 116.714 13.052 116.33 13.58C115.946 14.084 115.31 14.456 114.422 14.696ZM128.24 25.46C128.792 25.46 129.368 25.4 129.968 25.28C130.592 25.136 131.204 24.908 131.804 24.596C132.404 24.284 132.968 23.864 133.496 23.336C134.024 22.808 134.468 22.136 134.828 21.32L135.512 21.572C135.176 22.388 134.732 23.096 134.18 23.696C133.652 24.272 133.064 24.752 132.416 25.136C131.768 25.496 131.084 25.76 130.364 25.928C129.668 26.096 128.972 26.18 128.276 26.18C127.076 26.18 125.936 25.94 124.856 25.46C123.8 24.98 122.876 24.332 122.084 23.516C121.292 22.676 120.668 21.704 120.212 20.6C119.756 19.472 119.528 18.272 119.528 17C119.528 15.728 119.756 14.528 120.212 13.4C120.668 12.272 121.292 11.3 122.084 10.484C122.876 9.644 123.8 8.984 124.856 8.504C125.936 8.024 127.076 7.784 128.276 7.784C129.476 7.784 130.52 7.916 131.408 8.18C132.296 8.444 133.064 8.78 133.712 9.188C134.36 9.596 134.912 10.04 135.368 10.52C135.824 11 136.22 11.444 136.556 11.852L133.748 15.884L133.424 15.704C133.544 15.464 133.64 15.188 133.712 14.876C133.808 14.54 133.856 14.18 133.856 13.796C133.856 12.74 133.652 11.876 133.244 11.204C132.86 10.532 132.38 10.004 131.804 9.62C131.228 9.236 130.616 8.972 129.968 8.828C129.32 8.684 128.744 8.612 128.24 8.612C127.76 8.612 127.184 8.684 126.512 8.828C125.864 8.972 125.24 9.236 124.64 9.62C124.064 10.004 123.56 10.532 123.128 11.204C122.72 11.876 122.516 12.74 122.516 13.796C122.492 14.42 122.468 14.984 122.444 15.488C122.444 15.992 122.444 16.496 122.444 17C122.444 17.48 122.444 17.972 122.444 18.476C122.468 18.98 122.492 19.544 122.516 20.168C122.588 21.224 122.828 22.1 123.236 22.796C123.668 23.468 124.172 24.008 124.748 24.416C125.324 24.8 125.924 25.076 126.548 25.244C127.196 25.388 127.76 25.46 128.24 25.46ZM147.413 15.74L149.213 26H145.973L144.101 16.568H141.725V26H138.521V8H141.725V15.74H142.841C142.961 14.252 143.105 13.016 143.273 12.032C143.465 11.048 143.729 10.256 144.065 9.656C144.401 9.056 144.833 8.636 145.361 8.396C145.889 8.132 146.549 8 147.341 8C147.677 8 147.989 8.06 148.277 8.18C148.565 8.276 148.841 8.408 149.105 8.576L148.313 13.868H148.061C148.013 13.172 147.905 12.608 147.737 12.176C147.569 11.72 147.245 11.396 146.765 11.204C146.405 11.036 146.069 10.952 145.757 10.952C145.037 10.952 144.545 11.396 144.281 12.284C144.041 13.148 143.813 14.3 143.597 15.74H147.413ZM155.485 25.28C155.893 25.28 156.217 25.208 156.457 25.064C156.721 24.92 156.913 24.728 157.033 24.488C157.153 24.248 157.237 23.984 157.285 23.696C157.333 23.384 157.369 23.072 157.393 22.76V19.808V18.836V15.02C156.841 15.02 156.325 15.08 155.845 15.2C155.365 15.32 154.945 15.536 154.585 15.848C154.249 16.16 153.985 16.568 153.793 17.072C153.601 17.552 153.505 18.176 153.505 18.944C153.505 19.16 153.505 19.436 153.505 19.772C153.505 20.084 153.505 20.42 153.505 20.78C153.505 21.116 153.505 21.452 153.505 21.788C153.505 22.124 153.505 22.424 153.505 22.688C153.505 23.6 153.721 24.26 154.153 24.668C154.609 25.076 155.053 25.28 155.485 25.28ZM160.669 26H157.393V25.1C157.177 25.364 156.937 25.604 156.673 25.82C156.433 26.012 155.977 26.108 155.305 26.108C154.681 26.108 154.081 25.988 153.505 25.748C152.929 25.484 152.425 25.124 151.993 24.668C151.561 24.188 151.213 23.612 150.949 22.94C150.685 22.268 150.553 21.524 150.553 20.708C150.553 19.124 150.805 17.9 151.309 17.036C151.837 16.172 152.461 15.536 153.181 15.128C153.901 14.72 154.645 14.48 155.413 14.408C156.205 14.312 156.877 14.264 157.429 14.264V11.06C157.429 10.7 157.417 10.364 157.393 10.052C157.393 9.74 157.345 9.476 157.249 9.26C157.177 9.044 157.045 8.876 156.853 8.756C156.685 8.612 156.433 8.54 156.097 8.54C155.593 8.54 155.149 8.648 154.765 8.864C154.405 9.08 154.141 9.404 153.973 9.836C153.829 10.244 153.805 10.76 153.901 11.384C154.021 12.008 154.297 12.728 154.729 13.544H154.297L151.705 11.492C151.897 11.036 152.053 10.592 152.173 10.16C152.317 9.704 152.533 9.308 152.821 8.972C153.109 8.612 153.505 8.324 154.009 8.108C154.537 7.892 155.257 7.784 156.169 7.784C157.585 7.784 158.677 8.12 159.445 8.792C160.237 9.464 160.645 10.472 160.669 11.816V26ZM169.965 18.98V8.756H169.893C169.581 8.756 169.245 8.792 168.885 8.864C168.549 8.912 168.237 9.044 167.949 9.26C167.661 9.452 167.421 9.752 167.229 10.16C167.037 10.544 166.941 11.084 166.941 11.78C166.893 12.596 166.869 13.292 166.869 13.868C166.869 14.444 166.893 15.14 166.941 15.956C166.989 16.652 167.109 17.204 167.301 17.612C167.493 17.996 167.721 18.296 167.985 18.512C168.273 18.704 168.585 18.836 168.921 18.908C169.257 18.956 169.581 18.98 169.893 18.98H169.965ZM173.169 8V26H169.965V19.736H169.893C169.773 19.736 169.641 19.736 169.497 19.736C169.377 19.736 169.257 19.724 169.137 19.7L166.149 25.964H162.585L168.381 19.592C166.917 19.304 165.801 18.644 165.033 17.612C164.265 16.58 163.881 15.332 163.881 13.868C163.881 13.028 164.013 12.248 164.277 11.528C164.541 10.808 164.925 10.196 165.429 9.692C165.933 9.164 166.557 8.756 167.301 8.468C168.069 8.156 168.933 8 169.893 8H173.169ZM193.745 20.276C193.793 19.652 193.817 19.088 193.817 18.584C193.841 18.056 193.853 17.552 193.853 17.072C193.853 16.568 193.841 16.064 193.817 15.56C193.817 15.032 193.793 14.456 193.745 13.832C193.745 12.776 193.625 11.912 193.385 11.24C193.145 10.568 192.821 10.028 192.413 9.62C192.029 9.212 191.597 8.936 191.117 8.792C190.637 8.624 190.145 8.54 189.641 8.54V25.46C190.145 25.46 190.625 25.388 191.081 25.244C191.561 25.076 191.981 24.812 192.341 24.452C192.725 24.068 193.037 23.54 193.277 22.868C193.541 22.196 193.697 21.332 193.745 20.276ZM196.805 17.072C196.805 18.344 196.649 19.532 196.337 20.636C196.049 21.74 195.605 22.7 195.005 23.516C194.429 24.332 193.685 24.98 192.773 25.46C191.885 25.94 190.841 26.18 189.641 26.18V32.66H186.473V7.784H189.641C190.841 7.784 191.885 8.036 192.773 8.54C193.685 9.02 194.429 9.68 195.005 10.52C195.605 11.36 196.049 12.344 196.337 13.472C196.649 14.576 196.805 15.776 196.805 17.072ZM203.402 25.28C203.81 25.28 204.134 25.208 204.374 25.064C204.638 24.92 204.83 24.728 204.95 24.488C205.07 24.248 205.154 23.984 205.202 23.696C205.25 23.384 205.286 23.072 205.31 22.76V19.808V18.836V15.02C204.758 15.02 204.242 15.08 203.762 15.2C203.282 15.32 202.862 15.536 202.502 15.848C202.166 16.16 201.902 16.568 201.71 17.072C201.518 17.552 201.422 18.176 201.422 18.944C201.422 19.16 201.422 19.436 201.422 19.772C201.422 20.084 201.422 20.42 201.422 20.78C201.422 21.116 201.422 21.452 201.422 21.788C201.422 22.124 201.422 22.424 201.422 22.688C201.422 23.6 201.638 24.26 202.07 24.668C202.526 25.076 202.97 25.28 203.402 25.28ZM208.586 26H205.31V25.1C205.094 25.364 204.854 25.604 204.59 25.82C204.35 26.012 203.894 26.108 203.222 26.108C202.598 26.108 201.998 25.988 201.422 25.748C200.846 25.484 200.342 25.124 199.91 24.668C199.478 24.188 199.13 23.612 198.866 22.94C198.602 22.268 198.47 21.524 198.47 20.708C198.47 19.124 198.722 17.9 199.226 17.036C199.754 16.172 200.378 15.536 201.098 15.128C201.818 14.72 202.562 14.48 203.33 14.408C204.122 14.312 204.794 14.264 205.346 14.264V11.06C205.346 10.7 205.334 10.364 205.31 10.052C205.31 9.74 205.262 9.476 205.166 9.26C205.094 9.044 204.962 8.876 204.77 8.756C204.602 8.612 204.35 8.54 204.014 8.54C203.51 8.54 203.066 8.648 202.682 8.864C202.322 9.08 202.058 9.404 201.89 9.836C201.746 10.244 201.722 10.76 201.818 11.384C201.938 12.008 202.214 12.728 202.646 13.544H202.214L199.622 11.492C199.814 11.036 199.97 10.592 200.09 10.16C200.234 9.704 200.45 9.308 200.738 8.972C201.026 8.612 201.422 8.324 201.926 8.108C202.454 7.892 203.174 7.784 204.086 7.784C205.502 7.784 206.594 8.12 207.362 8.792C208.154 9.464 208.562 10.472 208.586 11.816V26ZM219.203 25.28V9.152H215.279L213.803 25.28H219.203ZM224.999 25.28L226.223 30.464H225.863C225.647 29.648 225.359 28.928 224.999 28.304C224.687 27.752 224.279 27.248 223.775 26.792C223.295 26.336 222.683 26.108 221.939 26.108H213.767C212.999 26.108 212.363 26.336 211.859 26.792C211.379 27.248 210.983 27.752 210.671 28.304C210.311 28.928 210.035 29.648 209.843 30.464H209.447L210.671 25.28H213.047C213.287 22.904 213.503 20.684 213.695 18.62C213.767 17.756 213.839 16.88 213.911 15.992C214.007 15.104 214.091 14.276 214.163 13.508C214.235 12.716 214.295 12.008 214.343 11.384C214.391 10.76 214.415 10.28 214.415 9.944L213.047 8.216V8H222.263V25.28H224.999ZM230.348 25.28C230.756 25.28 231.08 25.208 231.32 25.064C231.584 24.92 231.776 24.728 231.896 24.488C232.016 24.248 232.1 23.984 232.148 23.696C232.196 23.384 232.232 23.072 232.256 22.76V19.808V18.836V15.02C231.704 15.02 231.188 15.08 230.708 15.2C230.228 15.32 229.808 15.536 229.448 15.848C229.112 16.16 228.848 16.568 228.656 17.072C228.464 17.552 228.368 18.176 228.368 18.944C228.368 19.16 228.368 19.436 228.368 19.772C228.368 20.084 228.368 20.42 228.368 20.78C228.368 21.116 228.368 21.452 228.368 21.788C228.368 22.124 228.368 22.424 228.368 22.688C228.368 23.6 228.584 24.26 229.016 24.668C229.472 25.076 229.916 25.28 230.348 25.28ZM235.532 26H232.256V25.1C232.04 25.364 231.8 25.604 231.536 25.82C231.296 26.012 230.84 26.108 230.168 26.108C229.544 26.108 228.944 25.988 228.368 25.748C227.792 25.484 227.288 25.124 226.856 24.668C226.424 24.188 226.076 23.612 225.812 22.94C225.548 22.268 225.416 21.524 225.416 20.708C225.416 19.124 225.668 17.9 226.172 17.036C226.7 16.172 227.324 15.536 228.044 15.128C228.764 14.72 229.508 14.48 230.276 14.408C231.068 14.312 231.74 14.264 232.292 14.264V11.06C232.292 10.7 232.28 10.364 232.256 10.052C232.256 9.74 232.208 9.476 232.112 9.26C232.04 9.044 231.908 8.876 231.716 8.756C231.548 8.612 231.296 8.54 230.96 8.54C230.456 8.54 230.012 8.648 229.628 8.864C229.268 9.08 229.004 9.404 228.836 9.836C228.692 10.244 228.668 10.76 228.764 11.384C228.884 12.008 229.16 12.728 229.592 13.544H229.16L226.568 11.492C226.76 11.036 226.916 10.592 227.036 10.16C227.18 9.704 227.396 9.308 227.684 8.972C227.972 8.612 228.368 8.324 228.872 8.108C229.4 7.892 230.12 7.784 231.032 7.784C232.448 7.784 233.54 8.12 234.308 8.792C235.1 9.464 235.508 10.472 235.532 11.816V26ZM256.659 0.799998C257.403 0.799998 258.147 0.883999 258.891 1.052C259.659 1.22 260.343 1.532 260.943 1.988C261.567 2.444 262.071 3.056 262.455 3.824C262.839 4.568 263.031 5.54 263.031 6.74C263.031 8.012 262.887 9.092 262.599 9.98C262.335 10.844 261.963 11.588 261.483 12.212C261.003 12.836 260.439 13.376 259.791 13.832C259.167 14.288 258.495 14.744 257.775 15.2C257.079 15.632 256.359 16.112 255.615 16.64C254.871 17.144 254.151 17.78 253.455 18.548C252.783 19.292 252.147 20.204 251.547 21.284C250.947 22.364 250.443 23.684 250.035 25.244H255.255C256.743 25.244 257.967 25.004 258.927 24.524C259.911 24.044 260.703 23.516 261.303 22.94C261.999 22.292 262.539 21.536 262.923 20.672H263.355L262.095 26H249.279V25.244C249.687 23.516 250.227 22.052 250.899 20.852C251.571 19.628 252.291 18.548 253.059 17.612C253.827 16.676 254.607 15.824 255.399 15.056C256.215 14.288 256.947 13.484 257.595 12.644C258.243 11.804 258.771 10.88 259.179 9.872C259.587 8.864 259.791 7.64 259.791 6.2C259.791 5.36 259.707 4.652 259.539 4.076C259.371 3.476 259.143 2.996 258.855 2.636C258.567 2.252 258.231 1.976 257.847 1.808C257.463 1.64 257.067 1.556 256.659 1.556C256.323 1.556 255.903 1.616 255.399 1.736C254.919 1.832 254.439 2.096 253.959 2.528C253.503 2.936 253.107 3.56 252.771 4.4C252.459 5.24 252.303 6.404 252.303 7.892C252.303 8.42 252.351 8.924 252.447 9.404C252.567 9.86 252.699 10.256 252.843 10.592L252.447 10.844L248.847 5.12C249.279 4.544 249.759 3.992 250.287 3.464C250.839 2.936 251.439 2.48 252.087 2.096C252.735 1.688 253.443 1.376 254.211 1.16C254.979 0.919998 255.795 0.799998 256.659 0.799998ZM270.517 24.416C270.517 24.848 270.349 25.22 270.013 25.532C269.701 25.844 269.329 26 268.897 26C268.465 26 268.093 25.844 267.781 25.532C267.469 25.22 267.313 24.848 267.313 24.416C267.313 23.984 267.469 23.624 267.781 23.336C268.093 23.024 268.465 22.868 268.897 22.868C269.329 22.868 269.701 23.024 270.013 23.336C270.349 23.624 270.517 23.984 270.517 24.416ZM282.485 0.439999C283.565 0.439999 284.585 0.775999 285.545 1.448C286.505 2.12 287.345 3.044 288.065 4.22C288.809 5.396 289.385 6.776 289.793 8.36C290.225 9.92 290.441 11.6 290.441 13.4C290.441 15.2 290.225 16.892 289.793 18.476C289.385 20.036 288.809 21.404 288.065 22.58C287.345 23.756 286.505 24.68 285.545 25.352C284.585 26.024 283.565 26.36 282.485 26.36C281.405 26.36 280.373 26.024 279.389 25.352C278.429 24.68 277.577 23.756 276.833 22.58C276.113 21.404 275.537 20.036 275.105 18.476C274.697 16.892 274.493 15.2 274.493 13.4C274.493 11.6 274.697 9.92 275.105 8.36C275.537 6.776 276.113 5.396 276.833 4.22C277.577 3.044 278.429 2.12 279.389 1.448C280.373 0.775999 281.405 0.439999 282.485 0.439999ZM282.413 25.604C282.821 25.604 283.277 25.484 283.781 25.244C284.285 25.004 284.765 24.584 285.221 23.984C285.677 23.384 286.073 22.592 286.409 21.608C286.745 20.624 286.949 19.388 287.021 17.9C287.069 17.012 287.105 16.208 287.129 15.488C287.153 14.768 287.165 14.072 287.165 13.4C287.165 12.704 287.153 11.996 287.129 11.276C287.105 10.556 287.069 9.764 287.021 8.9C287.021 7.412 286.865 6.176 286.553 5.192C286.241 4.208 285.845 3.416 285.365 2.816C284.909 2.216 284.405 1.796 283.853 1.556C283.325 1.316 282.845 1.196 282.413 1.196C281.981 1.196 281.501 1.316 280.973 1.556C280.445 1.796 279.941 2.216 279.461 2.816C279.005 3.416 278.609 4.208 278.273 5.192C277.961 6.176 277.805 7.412 277.805 8.9C277.781 9.764 277.757 10.556 277.733 11.276C277.709 11.996 277.697 12.704 277.697 13.4C277.697 14.072 277.709 14.768 277.733 15.488C277.757 16.208 277.781 17.012 277.805 17.9C277.853 19.388 278.033 20.624 278.345 21.608C278.681 22.592 279.065 23.384 279.497 23.984C279.953 24.584 280.445 25.004 280.973 25.244C281.501 25.484 281.981 25.604 282.413 25.604Z" fill="#F7F9FC"/>
</svg>
