<svg width="387" height="44" viewBox="0 0 387 44" fill="none" xmlns="http://www.w3.org/2000/svg">
<path d="M0.4 1.4H15.376V35H11.152V2.408H4.672V35H0.4V1.4ZM25.6649 11.816C25.2489 11.816 24.8649 11.912 24.5129 12.104C24.1609 12.296 23.8409 12.664 23.5529 13.208C23.2969 13.72 23.0889 14.424 22.9289 15.32C22.8009 16.216 22.7369 17.384 22.7369 18.824V20.36H29.6969C29.7929 20.2 29.9049 20.024 30.0329 19.832C30.1929 19.64 30.2569 19.288 30.2249 18.776C30.1929 17.336 30.0009 16.168 29.6489 15.272C29.3289 14.376 28.9449 13.672 28.4969 13.16C28.0489 12.648 27.5689 12.296 27.0569 12.104C26.5449 11.912 26.0809 11.816 25.6649 11.816ZM26.6729 34.472C27.1529 34.472 27.6329 34.376 28.1129 34.184C28.6249 33.992 29.1209 33.672 29.6009 33.224C30.0809 32.744 30.5289 32.136 30.9449 31.4C31.3929 30.664 31.7609 29.752 32.0489 28.664L32.7209 29.288C32.1449 31.528 31.2809 33.128 30.1289 34.088C29.0089 35.016 27.8569 35.48 26.6729 35.48C25.6489 35.48 24.6249 35.24 23.6009 34.76C22.5769 34.28 21.6649 33.544 20.8649 32.552C20.0649 31.528 19.4089 30.232 18.8969 28.664C18.4169 27.096 18.1769 25.24 18.1769 23.096C18.1769 21.368 18.3689 19.752 18.7529 18.248C19.1689 16.744 19.7129 15.432 20.3849 14.312C21.0569 13.192 21.8409 12.312 22.7369 11.672C23.6649 11 24.6409 10.664 25.6649 10.664C26.6889 10.664 27.6169 10.936 28.4489 11.48C29.3129 12.024 30.0489 12.776 30.6569 13.736C31.2649 14.696 31.7449 15.832 32.0969 17.144C32.4809 18.424 32.6889 19.832 32.7209 21.368H22.7369C22.7049 22.36 22.6889 23.304 22.6889 24.2C22.6889 25.096 22.7049 26.152 22.7369 27.368C22.7369 28.808 22.8649 29.992 23.1209 30.92C23.4089 31.816 23.7449 32.536 24.1289 33.08C24.5129 33.592 24.9289 33.96 25.3769 34.184C25.8249 34.376 26.2569 34.472 26.6729 34.472ZM45.6966 27.368C45.7606 26.536 45.7926 25.784 45.7926 25.112C45.8246 24.408 45.8406 23.736 45.8406 23.096C45.8406 22.424 45.8246 21.752 45.7926 21.08C45.7926 20.376 45.7606 19.608 45.6966 18.776C45.6966 17.368 45.5366 16.216 45.2166 15.32C44.8966 14.424 44.4646 13.704 43.9206 13.16C43.4086 12.616 42.8326 12.248 42.1926 12.056C41.5526 11.832 40.8966 11.72 40.2246 11.72V34.28C40.8966 34.28 41.5366 34.184 42.1446 33.992C42.7846 33.768 43.3446 33.416 43.8246 32.936C44.3366 32.424 44.7526 31.72 45.0726 30.824C45.4246 29.928 45.6326 28.776 45.6966 27.368ZM49.7766 23.096C49.7766 24.792 49.5686 26.376 49.1526 27.848C48.7686 29.32 48.1766 30.6 47.3766 31.688C46.6086 32.776 45.6166 33.64 44.4006 34.28C43.2166 34.92 41.8246 35.24 40.2246 35.24V43.88H36.0006V10.712H40.2246C41.8246 10.712 43.2166 11.048 44.4006 11.72C45.6166 12.36 46.6086 13.24 47.3766 14.36C48.1766 15.48 48.7686 16.792 49.1526 18.296C49.5686 19.768 49.7766 21.368 49.7766 23.096ZM59.7655 11.816C59.3495 11.816 58.9655 11.912 58.6135 12.104C58.2615 12.296 57.9415 12.664 57.6535 13.208C57.3975 13.72 57.1895 14.424 57.0295 15.32C56.9015 16.216 56.8375 17.384 56.8375 18.824V20.36H63.7975C63.8935 20.2 64.0055 20.024 64.1335 19.832C64.2935 19.64 64.3575 19.288 64.3255 18.776C64.2935 17.336 64.1015 16.168 63.7495 15.272C63.4295 14.376 63.0455 13.672 62.5975 13.16C62.1495 12.648 61.6695 12.296 61.1575 12.104C60.6455 11.912 60.1815 11.816 59.7655 11.816ZM60.7735 34.472C61.2535 34.472 61.7335 34.376 62.2135 34.184C62.7255 33.992 63.2215 33.672 63.7015 33.224C64.1815 32.744 64.6295 32.136 65.0455 31.4C65.4935 30.664 65.8615 29.752 66.1495 28.664L66.8215 29.288C66.2455 31.528 65.3815 33.128 64.2295 34.088C63.1095 35.016 61.9575 35.48 60.7735 35.48C59.7495 35.48 58.7255 35.24 57.7015 34.76C56.6775 34.28 55.7655 33.544 54.9655 32.552C54.1655 31.528 53.5095 30.232 52.9975 28.664C52.5175 27.096 52.2775 25.24 52.2775 23.096C52.2775 21.368 52.4695 19.752 52.8535 18.248C53.2695 16.744 53.8135 15.432 54.4855 14.312C55.1575 13.192 55.9415 12.312 56.8375 11.672C57.7655 11 58.7415 10.664 59.7655 10.664C60.7895 10.664 61.7175 10.936 62.5495 11.48C63.4135 12.024 64.1495 12.776 64.7575 13.736C65.3655 14.696 65.8455 15.832 66.1975 17.144C66.5815 18.424 66.7895 19.832 66.8215 21.368H56.8375C56.8055 22.36 56.7895 23.304 56.7895 24.2C56.7895 25.096 56.8055 26.152 56.8375 27.368C56.8375 28.808 56.9655 29.992 57.2215 30.92C57.5095 31.816 57.8455 32.536 58.2295 33.08C58.6135 33.592 59.0295 33.96 59.4775 34.184C59.9255 34.376 60.3575 34.472 60.7735 34.472ZM77.2225 25.64V12.008H77.1265C76.7105 12.008 76.2625 12.056 75.7825 12.152C75.3345 12.216 74.9185 12.392 74.5345 12.68C74.1505 12.936 73.8305 13.336 73.5745 13.88C73.3185 14.392 73.1905 15.112 73.1905 16.04C73.1265 17.128 73.0945 18.056 73.0945 18.824C73.0945 19.592 73.1265 20.52 73.1905 21.608C73.2545 22.536 73.4145 23.272 73.6705 23.816C73.9265 24.328 74.2305 24.728 74.5825 25.016C74.9665 25.272 75.3825 25.448 75.8305 25.544C76.2785 25.608 76.7105 25.64 77.1265 25.64H77.2225ZM81.4945 11V35H77.2225V26.648H77.1265C76.9665 26.648 76.7905 26.648 76.5985 26.648C76.4385 26.648 76.2785 26.632 76.1185 26.6L72.1345 34.952H67.3825L75.1105 26.456C73.1585 26.072 71.6705 25.192 70.6465 23.816C69.6225 22.44 69.1105 20.776 69.1105 18.824C69.1105 17.704 69.2865 16.664 69.6385 15.704C69.9905 14.744 70.5025 13.928 71.1745 13.256C71.8465 12.552 72.6785 12.008 73.6705 11.624C74.6945 11.208 75.8465 11 77.1265 11H81.4945ZM97.0566 34.28C97.7926 34.28 98.5606 34.2 99.3606 34.04C100.193 33.848 101.009 33.544 101.809 33.128C102.609 32.712 103.361 32.152 104.065 31.448C104.769 30.744 105.361 29.848 105.841 28.76L106.753 29.096C106.305 30.184 105.713 31.128 104.977 31.928C104.273 32.696 103.489 33.336 102.625 33.848C101.761 34.328 100.849 34.68 99.8886 34.904C98.9606 35.128 98.0326 35.24 97.1046 35.24C95.5046 35.24 93.9846 34.92 92.5446 34.28C91.1366 33.64 89.9046 32.776 88.8486 31.688C87.7926 30.568 86.9606 29.272 86.3526 27.8C85.7446 26.296 85.4406 24.696 85.4406 23C85.4406 21.304 85.7446 19.704 86.3526 18.2C86.9606 16.696 87.7926 15.4 88.8486 14.312C89.9046 13.192 91.1366 12.312 92.5446 11.672C93.9846 11.032 95.5046 10.712 97.1046 10.712C98.7046 10.712 100.097 10.888 101.281 11.24C102.465 11.592 103.489 12.04 104.353 12.584C105.217 13.128 105.953 13.72 106.561 14.36C107.169 15 107.697 15.592 108.145 16.136L104.401 21.512L103.969 21.272C104.129 20.952 104.257 20.584 104.353 20.168C104.481 19.72 104.545 19.24 104.545 18.728C104.545 17.32 104.273 16.168 103.729 15.272C103.217 14.376 102.577 13.672 101.809 13.16C101.041 12.648 100.225 12.296 99.3606 12.104C98.4966 11.912 97.7286 11.816 97.0566 11.816C96.4166 11.816 95.6486 11.912 94.7526 12.104C93.8886 12.296 93.0566 12.648 92.2566 13.16C91.4886 13.672 90.8166 14.376 90.2406 15.272C89.6966 16.168 89.4246 17.32 89.4246 18.728C89.3926 19.56 89.3606 20.312 89.3286 20.984C89.3286 21.656 89.3286 22.328 89.3286 23C89.3286 23.64 89.3286 24.296 89.3286 24.968C89.3606 25.64 89.3926 26.392 89.4246 27.224C89.5206 28.632 89.8406 29.8 90.3846 30.728C90.9606 31.624 91.6326 32.344 92.4006 32.888C93.1686 33.4 93.9686 33.768 94.8006 33.992C95.6646 34.184 96.4166 34.28 97.0566 34.28ZM124.519 11.048V35H120.247V12.056H117.991L117.175 27.08C117.079 28.712 116.871 30.056 116.551 31.112C116.231 32.136 115.847 32.952 115.399 33.56C114.951 34.136 114.455 34.552 113.911 34.808C113.367 35.032 112.823 35.144 112.279 35.144C111.863 35.144 111.463 35.096 111.079 35L109.639 28.664L109.975 28.52C110.423 29.064 110.887 29.496 111.367 29.816C111.847 30.104 112.407 30.248 113.047 30.248C113.655 30.248 114.279 29.944 114.919 29.336C115.559 28.728 115.943 27.72 116.071 26.312C116.263 24.008 116.423 21.768 116.551 19.592C116.711 17.416 116.839 15.384 116.935 13.496L115.159 11.336V11.048H124.519ZM133.758 34.04C134.302 34.04 134.734 33.944 135.054 33.752C135.406 33.56 135.662 33.304 135.822 32.984C135.982 32.664 136.094 32.312 136.158 31.928C136.222 31.512 136.27 31.096 136.302 30.68V26.744V25.448V20.36C135.566 20.36 134.878 20.44 134.238 20.6C133.598 20.76 133.038 21.048 132.558 21.464C132.11 21.88 131.758 22.424 131.502 23.096C131.246 23.736 131.118 24.568 131.118 25.592C131.118 25.88 131.118 26.248 131.118 26.696C131.118 27.112 131.118 27.56 131.118 28.04C131.118 28.488 131.118 28.936 131.118 29.384C131.118 29.832 131.118 30.232 131.118 30.584C131.118 31.8 131.406 32.68 131.982 33.224C132.59 33.768 133.182 34.04 133.758 34.04ZM140.67 35H136.302V33.8C136.014 34.152 135.694 34.472 135.342 34.76C135.022 35.016 134.414 35.144 133.518 35.144C132.686 35.144 131.886 34.984 131.118 34.664C130.35 34.312 129.678 33.832 129.102 33.224C128.526 32.584 128.062 31.816 127.71 30.92C127.358 30.024 127.182 29.032 127.182 27.944C127.182 25.832 127.518 24.2 128.19 23.048C128.894 21.896 129.726 21.048 130.686 20.504C131.646 19.96 132.638 19.64 133.662 19.544C134.718 19.416 135.614 19.352 136.35 19.352V15.08C136.35 14.6 136.334 14.152 136.302 13.736C136.302 13.32 136.238 12.968 136.11 12.68C136.014 12.392 135.838 12.168 135.582 12.008C135.358 11.816 135.022 11.72 134.574 11.72C133.902 11.72 133.31 11.864 132.798 12.152C132.318 12.44 131.966 12.872 131.742 13.448C131.55 13.992 131.518 14.68 131.646 15.512C131.806 16.344 132.174 17.304 132.75 18.392H132.174L128.718 15.656C128.974 15.048 129.182 14.456 129.342 13.88C129.534 13.272 129.822 12.744 130.206 12.296C130.59 11.816 131.118 11.432 131.79 11.144C132.494 10.856 133.454 10.712 134.67 10.712C136.558 10.712 138.014 11.16 139.038 12.056C140.094 12.952 140.638 14.296 140.67 16.088V35ZM152.521 29.72C152.553 29.176 152.569 28.68 152.569 28.232C152.601 27.752 152.617 27.304 152.617 26.888C152.617 26.44 152.601 25.992 152.569 25.544C152.569 25.096 152.553 24.6 152.521 24.056C152.521 23.096 152.377 22.36 152.089 21.848C151.833 21.336 151.497 20.984 151.081 20.792C150.697 20.568 150.249 20.456 149.737 20.456C149.257 20.424 148.793 20.408 148.345 20.408H148.249V33.944H148.345C148.793 33.944 149.241 33.912 149.689 33.848C150.169 33.752 150.601 33.56 150.985 33.272C151.401 32.984 151.737 32.568 151.993 32.024C152.281 31.448 152.457 30.68 152.521 29.72ZM151.225 14.168C151.257 13.336 150.969 12.776 150.361 12.488C149.753 12.2 149.049 12.056 148.249 12.056V19.352C149.049 19.352 149.737 19.224 150.313 18.968C150.889 18.68 151.193 18.04 151.225 17.048V14.168ZM151.897 19.928C153.433 20.472 154.601 21.352 155.401 22.568C156.201 23.752 156.601 25.208 156.601 26.936C156.601 27.928 156.409 28.904 156.025 29.864C155.673 30.824 155.145 31.688 154.441 32.456C153.737 33.224 152.873 33.848 151.849 34.328C150.825 34.776 149.641 35 148.297 35H143.881V11H148.249C149.497 11.032 150.553 11.176 151.417 11.432C152.313 11.688 153.033 12.04 153.577 12.488C154.153 12.904 154.569 13.4 154.825 13.976C155.081 14.52 155.209 15.096 155.209 15.704C155.209 16.824 154.953 17.736 154.441 18.44C153.929 19.112 153.081 19.608 151.897 19.928ZM170.32 34.28C171.056 34.28 171.824 34.2 172.624 34.04C173.456 33.848 174.272 33.544 175.072 33.128C175.872 32.712 176.624 32.152 177.328 31.448C178.032 30.744 178.624 29.848 179.104 28.76L180.016 29.096C179.568 30.184 178.976 31.128 178.24 31.928C177.536 32.696 176.752 33.336 175.888 33.848C175.024 34.328 174.112 34.68 173.152 34.904C172.224 35.128 171.296 35.24 170.368 35.24C168.768 35.24 167.248 34.92 165.808 34.28C164.4 33.64 163.168 32.776 162.112 31.688C161.056 30.568 160.224 29.272 159.616 27.8C159.008 26.296 158.704 24.696 158.704 23C158.704 21.304 159.008 19.704 159.616 18.2C160.224 16.696 161.056 15.4 162.112 14.312C163.168 13.192 164.4 12.312 165.808 11.672C167.248 11.032 168.768 10.712 170.368 10.712C171.968 10.712 173.36 10.888 174.544 11.24C175.728 11.592 176.752 12.04 177.616 12.584C178.48 13.128 179.216 13.72 179.824 14.36C180.432 15 180.96 15.592 181.408 16.136L177.664 21.512L177.232 21.272C177.392 20.952 177.52 20.584 177.616 20.168C177.744 19.72 177.808 19.24 177.808 18.728C177.808 17.32 177.536 16.168 176.992 15.272C176.48 14.376 175.84 13.672 175.072 13.16C174.304 12.648 173.488 12.296 172.624 12.104C171.76 11.912 170.992 11.816 170.32 11.816C169.68 11.816 168.912 11.912 168.016 12.104C167.152 12.296 166.32 12.648 165.52 13.16C164.752 13.672 164.08 14.376 163.504 15.272C162.96 16.168 162.688 17.32 162.688 18.728C162.656 19.56 162.624 20.312 162.592 20.984C162.592 21.656 162.592 22.328 162.592 23C162.592 23.64 162.592 24.296 162.592 24.968C162.624 25.64 162.656 26.392 162.688 27.224C162.784 28.632 163.104 29.8 163.648 30.728C164.224 31.624 164.896 32.344 165.664 32.888C166.432 33.4 167.232 33.768 168.064 33.992C168.928 34.184 169.68 34.28 170.32 34.28ZM195.884 21.32L198.284 35H193.964L191.468 22.424H188.3V35H184.028V11H188.3V21.32H189.788C189.948 19.336 190.14 17.688 190.364 16.376C190.62 15.064 190.972 14.008 191.42 13.208C191.868 12.408 192.444 11.848 193.148 11.528C193.852 11.176 194.732 11 195.788 11C196.236 11 196.652 11.08 197.036 11.24C197.42 11.368 197.788 11.544 198.14 11.768L197.084 18.824H196.748C196.684 17.896 196.54 17.144 196.316 16.568C196.092 15.96 195.66 15.528 195.02 15.272C194.54 15.048 194.092 14.936 193.676 14.936C192.716 14.936 192.06 15.528 191.708 16.712C191.388 17.864 191.084 19.4 190.796 21.32H195.884ZM206.647 34.04C207.191 34.04 207.623 33.944 207.943 33.752C208.295 33.56 208.551 33.304 208.711 32.984C208.871 32.664 208.983 32.312 209.047 31.928C209.111 31.512 209.159 31.096 209.191 30.68V26.744V25.448V20.36C208.455 20.36 207.767 20.44 207.127 20.6C206.487 20.76 205.927 21.048 205.447 21.464C204.999 21.88 204.647 22.424 204.391 23.096C204.135 23.736 204.007 24.568 204.007 25.592C204.007 25.88 204.007 26.248 204.007 26.696C204.007 27.112 204.007 27.56 204.007 28.04C204.007 28.488 204.007 28.936 204.007 29.384C204.007 29.832 204.007 30.232 204.007 30.584C204.007 31.8 204.295 32.68 204.871 33.224C205.479 33.768 206.071 34.04 206.647 34.04ZM213.559 35H209.191V33.8C208.903 34.152 208.583 34.472 208.231 34.76C207.911 35.016 207.303 35.144 206.407 35.144C205.575 35.144 204.775 34.984 204.007 34.664C203.239 34.312 202.567 33.832 201.991 33.224C201.415 32.584 200.951 31.816 200.599 30.92C200.247 30.024 200.071 29.032 200.071 27.944C200.071 25.832 200.407 24.2 201.079 23.048C201.783 21.896 202.615 21.048 203.575 20.504C204.535 19.96 205.527 19.64 206.551 19.544C207.607 19.416 208.503 19.352 209.239 19.352V15.08C209.239 14.6 209.223 14.152 209.191 13.736C209.191 13.32 209.127 12.968 208.999 12.68C208.903 12.392 208.727 12.168 208.471 12.008C208.247 11.816 207.911 11.72 207.463 11.72C206.791 11.72 206.199 11.864 205.687 12.152C205.207 12.44 204.855 12.872 204.631 13.448C204.439 13.992 204.407 14.68 204.535 15.512C204.695 16.344 205.063 17.304 205.639 18.392H205.063L201.607 15.656C201.863 15.048 202.071 14.456 202.231 13.88C202.423 13.272 202.711 12.744 203.095 12.296C203.479 11.816 204.007 11.432 204.679 11.144C205.383 10.856 206.343 10.712 207.559 10.712C209.447 10.712 210.903 11.16 211.927 12.056C212.983 12.952 213.527 14.296 213.559 16.088V35ZM225.953 25.64V12.008H225.857C225.441 12.008 224.993 12.056 224.513 12.152C224.065 12.216 223.649 12.392 223.265 12.68C222.881 12.936 222.561 13.336 222.305 13.88C222.049 14.392 221.921 15.112 221.921 16.04C221.857 17.128 221.825 18.056 221.825 18.824C221.825 19.592 221.857 20.52 221.921 21.608C221.985 22.536 222.145 23.272 222.401 23.816C222.657 24.328 222.961 24.728 223.313 25.016C223.697 25.272 224.113 25.448 224.561 25.544C225.009 25.608 225.441 25.64 225.857 25.64H225.953ZM230.225 11V35H225.953V26.648H225.857C225.697 26.648 225.521 26.648 225.329 26.648C225.169 26.648 225.009 26.632 224.849 26.6L220.865 34.952H216.113L223.841 26.456C221.889 26.072 220.401 25.192 219.377 23.816C218.353 22.44 217.841 20.776 217.841 18.824C217.841 17.704 218.017 16.664 218.369 15.704C218.721 14.744 219.233 13.928 219.905 13.256C220.577 12.552 221.409 12.008 222.401 11.624C223.425 11.208 224.577 11 225.857 11H230.225ZM257.66 27.368C257.724 26.536 257.756 25.784 257.756 25.112C257.788 24.408 257.804 23.736 257.804 23.096C257.804 22.424 257.788 21.752 257.756 21.08C257.756 20.376 257.724 19.608 257.66 18.776C257.66 17.368 257.5 16.216 257.18 15.32C256.86 14.424 256.428 13.704 255.884 13.16C255.372 12.616 254.796 12.248 254.156 12.056C253.516 11.832 252.86 11.72 252.188 11.72V34.28C252.86 34.28 253.5 34.184 254.108 33.992C254.748 33.768 255.308 33.416 255.788 32.936C256.3 32.424 256.716 31.72 257.036 30.824C257.388 29.928 257.596 28.776 257.66 27.368ZM261.74 23.096C261.74 24.792 261.532 26.376 261.116 27.848C260.732 29.32 260.14 30.6 259.34 31.688C258.572 32.776 257.58 33.64 256.364 34.28C255.18 34.92 253.788 35.24 252.188 35.24V43.88H247.964V10.712H252.188C253.788 10.712 255.18 11.048 256.364 11.72C257.58 12.36 258.572 13.24 259.34 14.36C260.14 15.48 260.732 16.792 261.116 18.296C261.532 19.768 261.74 21.368 261.74 23.096ZM270.535 34.04C271.079 34.04 271.511 33.944 271.831 33.752C272.183 33.56 272.439 33.304 272.599 32.984C272.759 32.664 272.871 32.312 272.935 31.928C272.999 31.512 273.047 31.096 273.079 30.68V26.744V25.448V20.36C272.343 20.36 271.655 20.44 271.015 20.6C270.375 20.76 269.815 21.048 269.335 21.464C268.887 21.88 268.535 22.424 268.279 23.096C268.023 23.736 267.895 24.568 267.895 25.592C267.895 25.88 267.895 26.248 267.895 26.696C267.895 27.112 267.895 27.56 267.895 28.04C267.895 28.488 267.895 28.936 267.895 29.384C267.895 29.832 267.895 30.232 267.895 30.584C267.895 31.8 268.183 32.68 268.759 33.224C269.367 33.768 269.959 34.04 270.535 34.04ZM277.447 35H273.079V33.8C272.791 34.152 272.471 34.472 272.119 34.76C271.799 35.016 271.191 35.144 270.295 35.144C269.463 35.144 268.663 34.984 267.895 34.664C267.127 34.312 266.455 33.832 265.879 33.224C265.303 32.584 264.839 31.816 264.487 30.92C264.135 30.024 263.959 29.032 263.959 27.944C263.959 25.832 264.295 24.2 264.967 23.048C265.671 21.896 266.503 21.048 267.463 20.504C268.423 19.96 269.415 19.64 270.439 19.544C271.495 19.416 272.391 19.352 273.127 19.352V15.08C273.127 14.6 273.111 14.152 273.079 13.736C273.079 13.32 273.015 12.968 272.887 12.68C272.791 12.392 272.615 12.168 272.359 12.008C272.135 11.816 271.799 11.72 271.351 11.72C270.679 11.72 270.087 11.864 269.575 12.152C269.095 12.44 268.743 12.872 268.519 13.448C268.327 13.992 268.295 14.68 268.423 15.512C268.583 16.344 268.951 17.304 269.527 18.392H268.951L265.495 15.656C265.751 15.048 265.959 14.456 266.119 13.88C266.311 13.272 266.599 12.744 266.983 12.296C267.367 11.816 267.895 11.432 268.567 11.144C269.271 10.856 270.231 10.712 271.447 10.712C273.335 10.712 274.791 11.16 275.815 12.056C276.871 12.952 277.415 14.296 277.447 16.088V35ZM291.604 34.04V12.536H286.372L284.404 34.04H291.604ZM299.332 34.04L300.964 40.952H300.484C300.196 39.864 299.812 38.904 299.332 38.072C298.916 37.336 298.372 36.664 297.7 36.056C297.06 35.448 296.244 35.144 295.252 35.144H284.356C283.332 35.144 282.484 35.448 281.812 36.056C281.172 36.664 280.644 37.336 280.228 38.072C279.748 38.904 279.38 39.864 279.124 40.952H278.596L280.228 34.04H283.396C283.716 30.872 284.004 27.912 284.26 25.16C284.356 24.008 284.452 22.84 284.548 21.656C284.676 20.472 284.788 19.368 284.884 18.344C284.98 17.288 285.06 16.344 285.124 15.512C285.188 14.68 285.22 14.04 285.22 13.592L283.396 11.288V11H295.684V34.04H299.332ZM306.464 34.04C307.008 34.04 307.44 33.944 307.76 33.752C308.112 33.56 308.368 33.304 308.528 32.984C308.688 32.664 308.8 32.312 308.864 31.928C308.928 31.512 308.976 31.096 309.008 30.68V26.744V25.448V20.36C308.272 20.36 307.584 20.44 306.944 20.6C306.304 20.76 305.744 21.048 305.264 21.464C304.816 21.88 304.464 22.424 304.208 23.096C303.952 23.736 303.824 24.568 303.824 25.592C303.824 25.88 303.824 26.248 303.824 26.696C303.824 27.112 303.824 27.56 303.824 28.04C303.824 28.488 303.824 28.936 303.824 29.384C303.824 29.832 303.824 30.232 303.824 30.584C303.824 31.8 304.112 32.68 304.688 33.224C305.296 33.768 305.888 34.04 306.464 34.04ZM313.376 35H309.008V33.8C308.72 34.152 308.4 34.472 308.048 34.76C307.728 35.016 307.12 35.144 306.224 35.144C305.392 35.144 304.592 34.984 303.824 34.664C303.056 34.312 302.384 33.832 301.808 33.224C301.232 32.584 300.768 31.816 300.416 30.92C300.064 30.024 299.888 29.032 299.888 27.944C299.888 25.832 300.224 24.2 300.896 23.048C301.6 21.896 302.432 21.048 303.392 20.504C304.352 19.96 305.344 19.64 306.368 19.544C307.424 19.416 308.32 19.352 309.056 19.352V15.08C309.056 14.6 309.04 14.152 309.008 13.736C309.008 13.32 308.944 12.968 308.816 12.68C308.72 12.392 308.544 12.168 308.288 12.008C308.064 11.816 307.728 11.72 307.28 11.72C306.608 11.72 306.016 11.864 305.504 12.152C305.024 12.44 304.672 12.872 304.448 13.448C304.256 13.992 304.224 14.68 304.352 15.512C304.512 16.344 304.88 17.304 305.456 18.392H304.88L301.424 15.656C301.68 15.048 301.888 14.456 302.048 13.88C302.24 13.272 302.528 12.744 302.912 12.296C303.296 11.816 303.824 11.432 304.496 11.144C305.2 10.856 306.16 10.712 307.376 10.712C309.264 10.712 310.72 11.16 311.744 12.056C312.8 12.952 313.344 14.296 313.376 16.088V35ZM341.545 1.4C342.537 1.4 343.529 1.512 344.521 1.736C345.545 1.96 346.457 2.376 347.257 2.984C348.089 3.592 348.761 4.408 349.273 5.432C349.785 6.424 350.041 7.72 350.041 9.32C350.041 11.016 349.849 12.456 349.465 13.64C349.113 14.792 348.617 15.784 347.977 16.616C347.337 17.448 346.585 18.168 345.721 18.776C344.889 19.384 343.993 19.992 343.033 20.6C342.105 21.176 341.145 21.816 340.153 22.52C339.161 23.192 338.201 24.04 337.273 25.064C336.377 26.056 335.529 27.272 334.729 28.712C333.929 30.152 333.257 31.912 332.713 33.992H339.673C341.657 33.992 343.289 33.672 344.569 33.032C345.881 32.392 346.937 31.688 347.737 30.92C348.665 30.056 349.385 29.048 349.897 27.896H350.473L348.793 35H331.705V33.992C332.249 31.688 332.969 29.736 333.865 28.136C334.761 26.504 335.721 25.064 336.745 23.816C337.769 22.568 338.809 21.432 339.865 20.408C340.953 19.384 341.929 18.312 342.793 17.192C343.657 16.072 344.361 14.84 344.905 13.496C345.449 12.152 345.721 10.52 345.721 8.6C345.721 7.48 345.609 6.536 345.385 5.768C345.161 4.968 344.857 4.328 344.473 3.848C344.089 3.336 343.641 2.968 343.129 2.744C342.617 2.52 342.089 2.408 341.545 2.408C341.097 2.408 340.537 2.488 339.865 2.648C339.225 2.776 338.585 3.128 337.945 3.704C337.337 4.248 336.809 5.08 336.361 6.2C335.945 7.32 335.737 8.872 335.737 10.856C335.737 11.56 335.801 12.232 335.929 12.872C336.089 13.48 336.265 14.008 336.457 14.456L335.929 14.792L331.129 7.16C331.705 6.392 332.345 5.656 333.049 4.952C333.785 4.248 334.585 3.64 335.449 3.128C336.313 2.584 337.257 2.168 338.281 1.88C339.305 1.56 340.393 1.4 341.545 1.4ZM360.022 32.888C360.022 33.464 359.798 33.96 359.35 34.376C358.934 34.792 358.438 35 357.862 35C357.286 35 356.79 34.792 356.374 34.376C355.958 33.96 355.75 33.464 355.75 32.888C355.75 32.312 355.958 31.832 356.374 31.448C356.79 31.032 357.286 30.824 357.862 30.824C358.438 30.824 358.934 31.032 359.35 31.448C359.798 31.832 360.022 32.312 360.022 32.888ZM375.98 0.919998C377.42 0.919998 378.78 1.368 380.06 2.264C381.34 3.16 382.46 4.392 383.42 5.96C384.412 7.528 385.18 9.368 385.724 11.48C386.3 13.56 386.588 15.8 386.588 18.2C386.588 20.6 386.3 22.856 385.724 24.968C385.18 27.048 384.412 28.872 383.42 30.44C382.46 32.008 381.34 33.24 380.06 34.136C378.78 35.032 377.42 35.48 375.98 35.48C374.54 35.48 373.164 35.032 371.852 34.136C370.572 33.24 369.436 32.008 368.444 30.44C367.484 28.872 366.716 27.048 366.14 24.968C365.596 22.856 365.324 20.6 365.324 18.2C365.324 15.8 365.596 13.56 366.14 11.48C366.716 9.368 367.484 7.528 368.444 5.96C369.436 4.392 370.572 3.16 371.852 2.264C373.164 1.368 374.54 0.919998 375.98 0.919998ZM375.884 34.472C376.428 34.472 377.036 34.312 377.708 33.992C378.38 33.672 379.02 33.112 379.628 32.312C380.236 31.512 380.764 30.456 381.212 29.144C381.66 27.832 381.932 26.184 382.028 24.2C382.092 23.016 382.14 21.944 382.172 20.984C382.204 20.024 382.22 19.096 382.22 18.2C382.22 17.272 382.204 16.328 382.172 15.368C382.14 14.408 382.092 13.352 382.028 12.2C382.028 10.216 381.82 8.568 381.404 7.256C380.988 5.944 380.46 4.888 379.82 4.088C379.212 3.288 378.54 2.728 377.804 2.408C377.1 2.088 376.46 1.928 375.884 1.928C375.308 1.928 374.668 2.088 373.964 2.408C373.26 2.728 372.588 3.288 371.948 4.088C371.34 4.888 370.812 5.944 370.364 7.256C369.948 8.568 369.74 10.216 369.74 12.2C369.708 13.352 369.676 14.408 369.644 15.368C369.612 16.328 369.596 17.272 369.596 18.2C369.596 19.096 369.612 20.024 369.644 20.984C369.676 21.944 369.708 23.016 369.74 24.2C369.804 26.184 370.044 27.832 370.46 29.144C370.908 30.456 371.42 31.512 371.996 32.312C372.604 33.112 373.26 33.672 373.964 33.992C374.668 34.312 375.308 34.472 375.884 34.472Z" fill="#1A202C"/>
</svg>
