<svg width="32" height="21" viewBox="0 0 32 21" fill="none" xmlns="http://www.w3.org/2000/svg">
<g clip-path="url(#clip0_511_783)">
<path d="M30.4154 2.18409C30.4538 2.06885 30.4634 1.96321 30.4634 1.86717C30.4634 1.79034 30.4538 1.72311 30.425 1.68469C30.3962 1.64628 30.3289 1.60786 30.2329 1.57905C30.1273 1.55024 29.9832 1.53103 29.8103 1.53103H26.4106C26.084 1.53103 25.8631 1.60786 25.6999 1.73271C25.5366 1.85756 25.431 2.03043 25.3445 2.22251L25.3349 2.23211C25.2101 2.53944 23.491 6.60186 21.0804 9.30054L21.0612 9.31975C20.6387 9.74232 20.3313 10.0208 20.0624 10.1937C19.7359 10.4146 19.467 10.4914 19.1501 10.4914C18.8908 10.4914 18.5642 10.3378 18.3625 9.97281C18.2473 9.76152 18.1609 9.46381 18.1609 9.07005V2.32815C18.1609 1.99202 18.1224 1.76152 18.036 1.64628C17.9784 1.56945 17.8535 1.53103 17.6519 1.53103H12.3025C12.1681 1.53103 12.0624 1.56945 11.9952 1.63667C11.928 1.7039 11.8896 1.78073 11.8896 1.85756C11.8896 2.01122 12.024 2.17449 12.1969 2.38577C12.6002 2.89478 13.1573 3.57665 13.2437 5.14208V10.1841C13.2437 10.8179 13.1765 11.2021 13.0324 11.4614C12.8307 11.836 12.5426 11.932 12.1585 11.932C11.3998 11.932 10.2185 10.7123 9.03722 8.81074C8 7.13968 6.91477 4.91158 6.10804 2.54904C6.10804 2.53944 6.09844 2.52983 6.09844 2.51062C5.96399 2.12647 5.83914 1.86717 5.67587 1.71351C5.53181 1.58866 5.33013 1.52143 5.01321 1.52143H1.61345C1.26771 1.52143 1.07563 1.57905 0.989196 1.67509C0.921969 1.75192 0.902761 1.88637 0.902761 2.03043C0.902761 2.54904 1.32533 4.34496 2.59304 7.02443C3.40936 8.74352 4.57143 10.7891 6.18487 13.0556C7.51981 14.9764 9.12365 16.465 10.8235 17.483C12.581 18.5394 14.4346 19.0869 16.1921 19.0869C17.1813 19.0869 17.7095 18.9908 17.9688 18.8179C18.1417 18.7027 18.1705 18.4914 18.1705 18.2225V15.1685C18.1705 14.573 18.2473 14.1985 18.4586 13.9392C18.6987 13.6415 19.0348 13.555 19.515 13.555C19.8319 13.555 20.2449 13.6319 20.8691 13.9872C21.4262 14.3137 22.1849 14.8804 23.2221 15.8792L23.2317 15.8888C23.9232 16.5803 24.4418 17.1565 24.874 17.6367C25.7767 18.6355 26.1897 19.0965 26.9004 19.0965H30.3001C30.4826 19.0965 30.6267 19.0773 30.7515 19.0388C30.8764 19.0004 30.9724 18.9524 31.03 18.8756C31.078 18.8083 31.1068 18.7123 31.1068 18.5971C31.1068 18.4914 31.0876 18.3762 31.0492 18.2417C30.9148 17.8095 30.5786 17.2717 30.1176 16.6379C29.6375 15.9848 29.0036 15.2357 28.2737 14.4194C28.2641 14.4098 28.2641 14.4002 28.2545 14.4002C27.8703 13.9392 27.3806 13.459 26.9388 13.0364C26.497 12.6043 26.1128 12.2297 25.9112 11.9416C25.5846 11.519 25.4694 11.1829 25.4886 10.8468C25.5174 10.5202 25.6615 10.2609 25.8824 9.91519C25.892 9.89598 25.9112 9.87677 25.9208 9.86717C26.2377 9.41579 30.0024 4.05684 30.4058 2.24172C30.4058 2.22251 30.4154 2.21291 30.4154 2.1937V2.18409ZM31.3758 1.86717C31.3758 2.04964 31.3469 2.24172 31.2893 2.4434C30.8379 4.4506 26.9772 9.93439 26.6603 10.3858L26.6507 10.3954C26.5066 10.6259 26.401 10.7987 26.3914 10.9236C26.3818 11.0292 26.449 11.1733 26.6218 11.3942C26.6218 11.4038 26.6315 11.4038 26.6315 11.4134C26.7851 11.6247 27.1501 11.9896 27.5726 12.4026C28.024 12.8444 28.533 13.3438 28.9364 13.8239L28.946 13.8336C29.6855 14.6595 30.3289 15.4278 30.8379 16.1193C31.3661 16.83 31.7407 17.4542 31.904 17.9824V17.992C31.9712 18.2225 32 18.4242 32 18.6163C32 18.9524 31.904 19.2309 31.7215 19.4614C31.5486 19.6823 31.2989 19.836 30.9916 19.932C30.7803 19.9896 30.5498 20.028 30.2905 20.028H26.8908C25.7767 20.028 25.2773 19.471 24.1921 18.2609C23.7791 17.7999 23.2701 17.2333 22.5882 16.5514C21.6086 15.6103 20.9172 15.0821 20.4178 14.7939C19.976 14.5346 19.7071 14.4866 19.515 14.4866C19.3133 14.4866 19.1981 14.4962 19.1693 14.5346C19.102 14.6115 19.0828 14.8227 19.0828 15.1973V18.2513C19.0828 18.8083 18.9868 19.2597 18.4778 19.6055C18.0648 19.884 17.383 20.028 16.2017 20.028C14.2809 20.028 12.2641 19.4326 10.3721 18.2993C8.56663 17.2141 6.86675 15.6391 5.45498 13.6127C3.80312 11.2981 2.62185 9.2045 1.78631 7.4566C0.451381 4.64268 0 2.66429 0 2.07845C0 1.72311 0.0768307 1.37737 0.345738 1.09886C0.595438 0.839556 0.9988 0.666687 1.62305 0.666687H5.02281C5.57983 0.666687 5.97359 0.801141 6.29052 1.09886C6.57863 1.36777 6.77071 1.74232 6.95318 2.26092C6.96279 2.27053 6.96279 2.28974 6.97239 2.29934C7.7599 4.60426 8.81633 6.76513 9.81513 8.38818C10.8331 10.0304 11.7263 11.0773 12.1681 11.0773H12.2545C12.3217 10.962 12.3505 10.7027 12.3505 10.2321V5.21891C12.2737 3.9608 11.8319 3.40378 11.5054 3.00042C11.2173 2.64508 10.9964 2.37617 10.9964 1.89598C10.9964 1.56945 11.1405 1.24292 11.4094 1.00282C11.6399 0.801141 11.9472 0.666687 12.3217 0.666687H17.6711C18.1897 0.666687 18.545 0.820348 18.7851 1.15648C18.9964 1.4446 19.0828 1.84796 19.0828 2.37617V9.11807C19.0828 9.34856 19.1212 9.49262 19.1693 9.58866C19.1885 9.62707 19.1501 9.63667 19.1693 9.63667C19.2941 9.63667 19.419 9.59826 19.5822 9.48301C19.7935 9.33896 20.0624 9.09886 20.437 8.72431C22.7419 6.13127 24.4034 2.2033 24.5186 1.92479C24.5186 1.91519 24.5282 1.90558 24.5282 1.90558C24.6627 1.58866 24.8643 1.28133 25.1717 1.05084C25.479 0.820348 25.8824 0.666687 26.4298 0.666687H29.8295C30.0888 0.666687 30.3193 0.695499 30.5114 0.753122C30.8091 0.839556 31.0204 0.993218 31.1741 1.1949C31.3277 1.40618 31.395 1.64628 31.395 1.90558L31.3758 1.86717Z" fill="#F7F9FC"/>
</g>
<defs>
<clipPath id="clip0_511_783">
<rect width="32" height="19.3747" fill="white" transform="translate(0 0.666687)"/>
</clipPath>
</defs>
</svg>
